<?xml version="1.0" standalone="no"?>
<!DOCTYPE svg PUBLIC "-//W3C//DTD SVG 20010904//EN"
 "http://www.w3.org/TR/2001/REC-SVG-20010904/DTD/svg10.dtd">
<svg version="1.0" xmlns="http://www.w3.org/2000/svg"
 width="709.000000pt" height="709.000000pt" viewBox="0 0 709.000000 709.000000"
 preserveAspectRatio="xMidYMid meet">
<metadata>
Created by potrace 1.14, written by Peter Selinger 2001-2017
</metadata>
<g transform="translate(0.000000,709.000000) scale(0.100000,-0.100000)"
fill="#000000" stroke="none">
<path d="M3400 6533 c0 -4 9 -26 21 -50 27 -56 19 -67 -36 -43 l-45 19 0 -70
0 -69 41 21 c55 28 69 14 41 -41 -11 -23 -18 -48 -15 -56 3 -8 -18 -36 -52
-68 -49 -48 -56 -58 -53 -87 2 -23 10 -37 26 -45 12 -6 29 -20 37 -30 16 -22
20 -84 5 -84 -5 0 -10 16 -10 35 0 45 -30 64 -66 40 -13 -8 -24 -24 -24 -35 0
-23 -9 -25 -35 -7 -12 10 -14 16 -7 21 17 10 15 51 -2 65 -23 19 -70 9 -81
-17 -15 -33 -39 -23 -43 18 -5 45 -19 62 -51 58 -20 -2 -28 -11 -36 -35 -7
-25 -15 -33 -32 -33 -16 0 -21 4 -16 15 8 23 -26 55 -58 55 -32 0 -54 -30 -45
-63 3 -13 -1 -25 -12 -33 -14 -10 -18 -8 -29 17 -9 22 -19 29 -41 29 -15 0
-33 -5 -40 -12 -17 -17 -15 -65 4 -76 14 -8 14 -10 -1 -26 -15 -15 -19 -15
-29 -2 -11 14 -28 20 -53 17 -7 0 -20 -12 -28 -25 -19 -29 -8 -61 25 -71 16
-5 17 -10 9 -23 -8 -13 -21 -17 -44 -14 -26 3 -36 -1 -45 -18 -14 -27 -5 -70
15 -71 31 -3 35 -4 35 -11 0 -5 0 -17 0 -28 0 -15 -7 -20 -25 -20 -36 0 -52
-43 -29 -77 13 -20 22 -24 44 -19 20 4 30 1 34 -11 7 -18 8 -16 -21 -32 -28
-14 -40 -56 -23 -76 14 -17 66 -20 75 -5 4 6 11 8 16 4 6 -3 3 -11 -8 -19 -13
-10 -15 -16 -6 -26 6 -8 21 -45 32 -84 12 -38 35 -96 52 -129 24 -45 29 -66
25 -91 -4 -19 -2 -36 3 -40 6 -3 8 -24 5 -49 -4 -25 -1 -52 5 -64 9 -17 8 -28
-4 -53 -21 -40 -12 -80 27 -125 20 -23 28 -38 21 -45 -5 -5 -50 -11 -99 -13
-71 -3 -117 -12 -224 -46 -237 -75 -293 -77 -236 -9 l27 32 -58 53 -58 54 34
28 34 29 -37 48 c-21 26 -46 65 -57 87 -18 36 -18 38 -2 38 40 0 46 15 20 53
-14 20 -34 67 -46 104 -11 38 -31 86 -45 107 l-23 39 39 38 c22 21 37 42 34
47 -3 5 -20 12 -38 16 -18 3 -49 23 -70 43 l-37 37 29 18 c17 10 30 21 30 25
0 10 -123 63 -144 63 -12 0 -14 12 -9 68 4 51 2 76 -10 99 -15 27 -68 63 -96
63 -6 0 -11 16 -11 35 0 38 -22 57 -43 36 -6 -6 -22 -11 -35 -11 -20 0 -23 4
-19 23 12 47 -7 51 -59 11 -46 -35 -81 -53 -131 -68 -17 -6 -23 -3 -23 8 0 8
-9 32 -21 53 -27 49 -44 160 -27 180 10 12 9 18 -7 30 -14 11 -16 17 -7 20 19
7 14 30 -7 36 -14 3 -18 11 -14 26 4 16 1 21 -15 21 -11 0 -22 8 -25 20 -5 20
-27 28 -27 10 0 -19 -18 -10 -24 13 l-6 22 -19 -22 c-17 -20 -19 -20 -34 -6
-15 15 -17 15 -24 -3 -4 -10 -17 -19 -28 -19 -11 0 -20 -7 -20 -15 0 -8 -9
-18 -20 -21 -12 -3 -19 -12 -17 -22 2 -11 -2 -15 -12 -11 -9 3 -15 9 -14 12 2
22 -4 32 -21 32 -10 0 -29 9 -42 20 -19 16 -21 21 -10 29 8 5 11 16 6 31 -5
16 -10 19 -18 11 -15 -15 -27 -14 -27 4 0 18 -5 18 -31 4 -15 -8 -18 -14 -9
-24 8 -9 7 -14 -5 -19 -13 -5 -14 -10 -5 -26 9 -17 14 -19 26 -9 8 6 14 10 15
8 0 -2 2 -13 5 -24 2 -11 -2 -33 -8 -49 -10 -25 -9 -31 7 -42 16 -12 16 -14 2
-20 -9 -3 -20 -3 -25 0 -6 3 -15 -1 -22 -10 -10 -11 -15 -12 -21 -3 -10 17
-42 2 -35 -16 4 -12 2 -13 -15 -2 -16 10 -21 9 -29 -3 -5 -8 -6 -18 -4 -22 3
-4 -2 -8 -10 -8 -21 0 -30 -18 -16 -35 10 -12 9 -15 -3 -15 -25 0 -32 -22 -12
-37 18 -13 18 -13 -1 -28 -19 -14 -19 -15 3 -21 18 -5 22 -11 17 -30 -5 -20
-2 -24 15 -24 13 0 19 -5 15 -14 -5 -14 11 -30 32 -31 15 0 94 -67 94 -80 0
-5 9 -21 20 -35 11 -14 20 -33 20 -42 0 -10 5 -18 11 -18 8 0 8 -4 -1 -14 -14
-18 -93 -45 -158 -55 l-47 -7 48 -24 c26 -13 46 -27 45 -31 -2 -4 -19 -18 -38
-31 -93 -63 -108 -182 -31 -252 16 -15 19 -26 15 -60 -3 -22 -1 -77 4 -122 5
-44 6 -103 2 -130 -4 -27 -6 -51 -4 -53 1 -2 16 6 32 18 43 30 52 27 52 -22 0
-75 56 -247 80 -247 5 0 20 16 32 35 13 19 26 35 30 35 11 0 38 -98 45 -162 3
-32 8 -58 10 -58 2 0 15 7 29 16 13 9 27 14 31 11 3 -4 0 -41 -6 -83 -6 -42
-9 -79 -7 -81 2 -3 20 0 39 5 20 6 38 7 41 4 3 -3 6 -33 6 -67 0 -86 -44 -206
-117 -323 -18 -29 -33 -55 -33 -58 0 -8 -121 -181 -195 -279 -33 -44 -104
-146 -158 -226 -148 -221 -230 -299 -314 -299 -35 0 -50 7 -82 36 -102 92 -73
207 123 485 316 447 363 540 354 703 -3 56 -11 94 -26 122 -28 55 -105 121
-156 135 -59 16 -156 4 -221 -26 -116 -55 -225 -158 -225 -212 0 -26 -21 -107
-48 -184 -37 -104 -45 -160 -32 -208 11 -42 57 -101 78 -101 6 0 16 17 22 38
20 61 67 142 83 142 3 0 8 -16 11 -35 7 -33 26 -50 26 -22 0 6 34 54 75 106
97 122 110 148 100 209 -5 26 -9 65 -9 87 -1 34 3 41 28 54 26 12 36 12 70 0
61 -22 81 -57 81 -142 -1 -112 -46 -193 -231 -407 -31 -36 -64 -74 -73 -85 -9
-11 -32 -41 -52 -65 -152 -188 -234 -396 -211 -530 6 -32 20 -78 31 -101 12
-24 21 -45 21 -47 0 -3 -18 -2 -40 1 -38 5 -63 -8 -44 -22 5 -3 19 -24 30 -46
34 -63 92 -98 169 -103 l64 -4 -6 -28 -5 -29 57 15 c52 14 177 73 199 95 6 5
16 3 26 -6 9 -8 34 -21 56 -29 37 -13 39 -16 38 -52 -1 -97 -114 -247 -204
-273 -69 -20 -110 -43 -132 -74 -18 -24 -19 -39 -15 -125 3 -53 10 -134 17
-180 9 -62 9 -94 0 -130 -27 -114 -32 -151 -27 -219 6 -76 30 -133 43 -100 9
25 17 21 52 -28 17 -25 35 -45 40 -45 5 0 14 11 20 25 20 43 27 28 28 -58 2
-99 11 -120 65 -148 39 -20 41 -20 55 -2 7 10 14 21 14 26 0 17 25 3 115 -63
120 -90 198 -162 281 -261 51 -61 73 -80 99 -85 113 -21 353 103 762 393 73
51 163 109 201 129 l69 36 119 -16 c101 -14 271 -49 281 -59 1 -2 -24 -9 -57
-15 -34 -6 -73 -17 -88 -25 -23 -11 -33 -11 -62 1 -67 27 -138 -13 -157 -88
-8 -30 -14 -36 -49 -43 -126 -26 -124 -25 -124 -76 0 -25 8 -62 18 -81 20 -41
83 -79 137 -83 l37 -2 27 75 c27 74 28 75 68 80 22 4 52 13 66 23 28 18 50 71
45 113 -3 25 2 30 47 48 58 23 230 28 279 8 27 -12 27 -14 13 -35 -16 -25 -49
-27 -131 -10 -43 10 -50 9 -67 -8 -30 -30 -37 -59 -28 -124 18 -141 9 -247
-32 -368 -24 -72 -34 -137 -25 -171 36 -143 398 -236 919 -236 478 0 832 79
907 202 24 40 25 84 4 158 -58 205 -57 196 -50 356 6 138 5 153 -12 174 -22
27 -53 31 -106 13 -55 -19 -83 -16 -100 9 -8 12 -13 24 -11 28 2 4 32 13 65
20 70 15 161 9 238 -16 l52 -17 0 -48 c0 -65 38 -110 100 -118 l43 -6 27 -75
c30 -82 39 -88 98 -69 83 27 122 77 122 160 0 42 -3 49 -22 54 -13 3 -50 11
-82 18 -56 11 -60 14 -69 47 -19 76 -95 118 -157 87 -28 -14 -34 -14 -73 3
-23 10 -64 22 -91 26 -33 4 -44 9 -34 15 19 11 191 45 299 59 84 11 86 11 145
-16 54 -26 82 -43 199 -126 409 -288 665 -422 773 -403 46 8 58 17 104 80 63
87 174 187 338 305 67 48 90 82 90 130 0 25 -12 44 -61 92 -59 59 -60 62 -48
91 l13 30 38 -43 c21 -24 40 -41 41 -39 2 2 9 22 15 44 20 72 25 151 12 218
-6 36 -13 89 -13 120 l-2 55 24 -19 c48 -38 121 -11 121 45 0 41 24 51 63 27
102 -63 219 30 187 148 -15 57 -57 85 -124 83 -46 -2 -55 -6 -90 -43 -36 -38
-38 -44 -34 -90 3 -32 1 -53 -8 -59 -8 -8 -14 -8 -19 0 -9 14 -78 13 -93 -2
-6 -6 -14 -9 -17 -6 -7 6 23 155 35 178 4 8 11 40 15 71 8 62 0 83 -59 168
-18 25 -47 73 -66 105 -29 52 -33 68 -33 130 0 39 3 98 8 131 l7 60 13 -45 c7
-25 16 -63 20 -85 l7 -40 23 27 24 28 22 -38 c30 -49 169 -192 187 -192 9 0
12 6 8 16 -12 32 -16 89 -8 102 8 11 17 11 56 -2 58 -20 98 -20 162 -1 80 24
161 105 180 180 7 27 6 27 -17 12 -13 -8 -37 -18 -54 -22 l-30 -7 21 24 c35
39 55 96 61 173 11 147 -48 271 -284 599 -234 326 -270 442 -174 577 33 47 79
65 126 49 41 -14 42 -17 48 -160 6 -128 24 -173 102 -250 30 -30 55 -58 55
-61 0 -4 13 -37 30 -72 48 -104 137 -165 195 -135 l26 14 -26 14 c-41 22 -53
57 -56 155 -1 60 -11 122 -30 194 -21 77 -29 130 -29 192 0 75 -3 89 -25 120
-36 48 -59 65 -145 105 -164 77 -301 48 -393 -82 -54 -77 -70 -128 -70 -229 0
-72 5 -103 25 -156 47 -122 103 -214 233 -388 138 -185 179 -254 214 -360 43
-131 21 -204 -75 -247 -30 -13 -67 -24 -82 -24 -73 1 -161 76 -218 185 -16 32
-18 47 -11 72 8 26 6 37 -12 61 -27 39 -27 45 9 80 18 19 30 41 30 57 0 35
-41 75 -78 75 -34 0 -46 19 -33 53 21 54 -33 109 -91 94 -34 -9 -49 10 -42 53
5 33 2 43 -19 64 -27 27 -80 36 -92 16 -15 -25 -38 -6 -68 58 -28 60 -32 77
-32 157 0 82 3 95 33 152 21 42 37 61 46 57 13 -5 73 35 145 98 l33 29 -27 29
c-41 43 -23 60 64 60 56 0 71 4 96 25 l30 25 -27 21 c-39 29 -35 39 16 39 29
0 52 7 70 21 l27 21 -22 24 c-21 22 -38 81 -39 137 0 24 3 27 35 27 43 0 95
20 115 45 11 14 12 19 3 22 -30 10 -55 42 -73 93 -11 30 -20 62 -20 70 0 9 -9
33 -20 55 -11 22 -20 40 -20 41 0 1 13 5 30 9 34 7 80 41 80 58 0 7 -13 19
-29 29 -16 9 -46 41 -67 72 -20 31 -40 56 -43 56 -3 0 -12 4 -20 9 -10 7 -5
17 24 43 21 19 35 39 32 45 -4 6 -24 13 -45 17 -43 6 -107 45 -107 64 0 7 11
18 25 25 13 7 30 24 37 37 11 23 10 25 -15 31 -15 4 -60 14 -100 24 -40 9 -98
27 -128 41 -30 13 -68 24 -84 24 -26 0 -29 -3 -32 -37 l-3 -38 -17 30 c-9 17
-27 41 -40 56 -32 35 -166 140 -175 137 -9 -4 -4 -97 8 -136 13 -40 6 -66 -9
-32 -6 14 -13 37 -16 51 -6 26 -48 79 -64 79 -5 0 -7 -12 -4 -26 5 -25 3 -26
-29 -19 -19 4 -43 16 -55 26 -11 10 -27 19 -35 19 -9 0 -26 11 -39 25 -13 14
-32 25 -42 25 -10 0 -28 11 -40 25 -12 14 -32 25 -44 25 -12 0 -24 6 -27 14
-3 8 -19 17 -35 21 -17 3 -33 13 -36 21 -3 8 -16 14 -30 14 -14 0 -28 4 -31
10 -9 15 -304 164 -311 157 -2 -1 33 -34 78 -72 45 -39 103 -89 130 -112 27
-24 55 -43 63 -43 7 0 17 -9 20 -20 3 -11 15 -20 25 -20 10 0 25 -11 34 -25 9
-14 23 -25 31 -25 7 0 20 -8 27 -19 7 -10 23 -21 35 -25 11 -4 28 -17 36 -30
9 -13 29 -26 46 -29 17 -4 32 -14 36 -27 3 -11 12 -21 18 -21 7 -1 17 -2 24
-3 6 0 21 -13 32 -28 12 -15 30 -30 41 -33 19 -6 29 -34 13 -36 -19 -2 -45 -8
-78 -19 -27 -9 -40 -22 -56 -54 -19 -41 -188 -216 -273 -281 -34 -27 -38 -35
-38 -72 1 -41 24 -101 46 -115 6 -5 27 -12 46 -18 26 -7 39 -6 57 6 23 14 23
14 18 -9 -5 -19 0 -29 21 -46 15 -11 33 -21 40 -21 11 0 13 -12 8 -55 -5 -43
-3 -60 11 -82 l18 -28 17 40 c13 32 29 47 81 75 l64 35 3 57 c3 51 7 60 39 88
25 23 42 30 57 26 72 -21 75 -20 116 23 22 23 40 37 40 30 0 -20 -67 -103
-118 -146 -27 -23 -78 -80 -112 -127 -61 -81 -64 -84 -91 -74 -49 17 -62 8
-73 -51 -11 -52 -36 -83 -36 -44 0 29 -42 63 -78 63 -24 0 -37 -8 -58 -35 -30
-40 -46 -43 -74 -15 -11 11 -31 22 -45 26 -37 9 -85 -37 -85 -82 0 -36 -36
-72 -54 -54 -6 6 -22 10 -36 10 -22 0 -36 13 -76 69 -61 87 -101 111 -180 111
-85 0 -125 -14 -223 -79 -48 -31 -126 -76 -174 -100 l-86 -43 -31 22 c-16 12
-30 23 -30 25 0 2 16 19 35 38 29 29 35 42 35 77 0 23 -4 49 -10 59 -6 12 -5
29 3 50 8 23 9 39 0 60 -7 19 -7 33 -1 39 6 6 10 27 10 48 0 21 11 61 25 87
36 71 91 237 82 243 -5 3 -9 10 -9 17 0 8 3 8 12 -1 17 -17 63 -15 78 3 18 22
4 64 -25 75 -32 12 -22 40 14 40 34 0 51 17 51 50 0 32 -17 50 -47 50 -18 0
-23 6 -23 25 0 16 7 28 18 31 34 11 47 21 50 43 5 30 -22 53 -58 49 -46 -4
-54 19 -18 51 27 24 29 29 17 54 -7 15 -19 28 -28 28 -27 2 -46 -2 -49 -12 -5
-12 -26 -11 -39 2 -9 9 -8 15 3 26 17 18 18 55 2 71 -22 22 -67 14 -80 -13
-12 -27 -16 -29 -36 -16 -8 5 -11 17 -7 33 8 30 -16 58 -49 58 -28 0 -46 -18
-46 -47 0 -17 -6 -23 -23 -23 -17 0 -25 8 -32 33 -12 40 -51 49 -80 17 -15
-16 -16 -25 -7 -44 9 -20 8 -25 -4 -30 -25 -10 -30 -7 -42 19 -13 27 -58 35
-80 13 -15 -15 -15 -51 0 -66 14 -14 11 -17 -19 -26 -19 -6 -23 -3 -23 13 0
30 -43 56 -69 42 -23 -13 -34 -41 -25 -65 3 -9 1 -16 -5 -16 -6 0 -11 13 -11
29 0 22 12 41 45 73 61 59 59 76 -17 150 -37 35 -58 62 -51 65 9 3 7 15 -7 43
-19 38 -26 70 -15 70 3 0 22 -7 42 -15 19 -8 39 -15 44 -15 5 0 9 27 9 60 0
35 -4 60 -10 60 -6 0 -27 -7 -47 -15 -19 -8 -37 -15 -39 -15 -10 0 -2 35 16
70 11 22 20 42 20 45 0 3 -36 5 -80 5 -44 0 -80 -3 -80 -7z m108 -140 c3 -22
-28 -40 -48 -28 -12 7 -13 38 -3 49 15 14 48 1 51 -21z m-2425 -167 c9 3 17 2
17 -3 0 -11 -79 -47 -87 -39 -3 3 2 8 11 12 13 5 16 14 11 38 l-6 31 18 -23
c13 -15 25 -21 36 -16z m2425 -38 l3 -68 59 0 c57 0 60 -1 60 -25 l0 -25 -149
0 c-127 0 -150 2 -155 16 -10 27 3 34 60 34 l54 0 0 54 c0 73 7 88 39 84 25
-3 26 -6 29 -70z m-2157 33 c40 -41 40 -64 0 -39 -15 9 -26 9 -45 0 -14 -6
-33 -9 -41 -6 -18 7 -62 -18 -92 -54 -19 -23 -23 -24 -29 -9 -4 11 7 32 36 64
68 78 122 92 171 44z m12 -89 c10 -10 15 -21 12 -24 -3 -3 1 -11 10 -18 8 -7
15 -17 15 -23 0 -7 -4 -7 -12 1 -20 20 -24 14 -20 -23 4 -37 11 -42 30 -23 9
9 12 8 12 -4 0 -8 -7 -21 -15 -28 -19 -16 -65 -4 -65 16 0 14 3 14 15 4 13
-10 15 -9 15 12 0 28 -17 49 -34 42 -7 -3 -18 7 -24 21 -6 14 -19 25 -28 25
-13 0 -16 -7 -11 -35 3 -20 2 -33 -2 -30 -5 2 -14 -2 -21 -10 -17 -20 6 -51
25 -35 16 14 30 -17 15 -35 -5 -6 -7 -15 -4 -18 9 -9 -43 -20 -61 -13 -22 8
-18 26 5 26 23 0 23 -2 9 39 -10 30 -13 31 -29 16 -16 -15 -18 -13 -23 20 -5
31 -1 41 28 72 27 29 38 34 59 29 13 -3 28 -2 31 4 10 16 51 11 68 -8z m-258
-2 c-3 -5 -10 -10 -16 -10 -5 0 -9 5 -9 10 0 6 7 10 16 10 8 0 12 -4 9 -10z
m15 -30 c0 -5 -4 -10 -10 -10 -5 0 -10 5 -10 10 0 6 5 10 10 10 6 0 10 -4 10
-10z m-42 -23 c3 -14 -4 -17 -38 -17 -33 0 -48 -6 -72 -30 -16 -17 -38 -35
-49 -40 -12 -7 -19 -21 -19 -40 0 -41 -17 -37 -29 6 -11 40 4 93 30 110 16 10
137 33 159 31 8 -1 16 -10 18 -20z m59 -17 c8 -12 9 -21 3 -25 -6 -3 -10 1
-10 9 0 9 -4 16 -10 16 -5 0 -10 5 -10 10 0 16 14 11 27 -10z m-37 -40 c0 -6
11 -15 25 -22 28 -13 23 -32 -6 -23 -19 6 -19 5 -2 -29 15 -32 18 -34 33 -21
22 20 30 19 30 -4 0 -24 -40 -55 -53 -42 -5 5 -15 7 -22 5 -7 -3 -15 2 -19 12
-4 12 -2 15 9 10 18 -6 18 -5 5 29 -8 21 -13 24 -29 16 -14 -8 -22 -7 -31 4
-22 26 -43 19 -37 -14 8 -38 -2 -73 -19 -67 -8 3 -14 -1 -14 -9 0 -8 -4 -15
-10 -15 -5 0 -10 9 -10 20 0 11 -4 20 -9 20 -12 0 -21 38 -14 57 3 8 16 19 29
24 13 4 24 16 24 24 0 9 10 20 23 25 31 12 97 12 97 0z m257 -75 c-96 -38
-250 -114 -255 -127 -2 -4 -8 -8 -14 -8 -6 0 -26 -11 -45 -26 -18 -14 -33 -21
-33 -16 0 15 155 112 235 148 75 33 160 62 180 63 11 0 -20 -15 -68 -34z
m2141 13 c21 -21 13 -33 -23 -33 -38 0 -47 17 -17 34 22 13 26 13 40 -1z
m-2048 -18 c0 -5 -7 -10 -15 -10 -8 0 -15 5 -15 10 0 6 7 10 15 10 8 0 15 -4
15 -10z m1704 -35 c43 -20 111 -44 152 -52 l74 -17 0 -58 c0 -32 -4 -58 -9
-58 -14 0 -74 21 -121 43 -62 29 -166 35 -211 12 -19 -10 -37 -22 -40 -27 -3
-5 -36 -10 -72 -11 -83 -3 -111 -22 -154 -105 -17 -34 -34 -58 -37 -53 -14 22
-18 133 -7 178 45 179 225 242 425 148z m914 30 c47 -20 119 -89 139 -135 17
-39 23 -157 9 -205 l-8 -30 -14 38 c-32 90 -98 140 -182 136 -37 -2 -55 4 -87
25 -37 26 -46 28 -115 24 -41 -3 -84 -10 -95 -16 -32 -19 -115 -52 -131 -52
-10 0 -14 15 -14 59 l0 58 63 12 c34 7 103 30 152 51 50 21 99 41 110 43 46
11 138 6 173 -8z m-2713 -25 c-3 -5 -13 -10 -21 -10 -8 0 -12 5 -9 10 3 6 13
10 21 10 8 0 12 -4 9 -10z m110 -25 c0 -11 -6 -19 -12 -18 -22 5 -145 -46
-242 -100 -56 -31 -103 -51 -117 -49 -13 2 -24 -1 -24 -7 0 -6 5 -11 10 -11 6
0 10 -4 10 -10 0 -13 -27 -13 -36 1 -19 32 136 129 196 123 32 -3 32 -2 6 4
-28 7 -26 9 50 43 104 48 105 48 134 46 18 -1 25 -8 25 -22z m2035 10 c18 -21
3 -55 -25 -55 -32 0 -45 38 -19 57 23 17 29 16 44 -2z m-2443 -26 c7 -7 7 -17
-1 -35 -9 -19 -19 -24 -46 -24 -33 1 -34 1 -12 13 18 10 20 15 10 26 -11 11
-9 12 11 6 20 -6 23 -4 18 9 -7 18 4 21 20 5z m180 -16 c-9 -9 -19 -14 -23
-11 -10 10 6 28 24 28 15 0 15 -1 -1 -17z m-102 -52 c-3 -6 -14 -11 -23 -11
-15 1 -15 2 2 15 21 16 32 13 21 -4z m2370 -16 c0 -25 -4 -30 -24 -30 -32 0
-49 28 -31 50 7 9 23 15 34 13 16 -2 21 -10 21 -33z m-1691 -37 c8 -13 15 -32
16 -43 6 -58 -8 -72 -30 -30 -17 32 -28 32 -32 -2 -4 -33 -24 -41 -33 -13 -4
12 -18 25 -31 30 -31 12 -30 24 4 48 54 38 86 41 106 10z m-768 -15 c-10 -10
-19 5 -10 18 6 11 8 11 12 0 2 -7 1 -15 -2 -18z m2189 -36 c33 -14 79 -30 103
-36 39 -11 42 -14 42 -46 0 -19 -5 -37 -10 -40 -7 -4 2 -25 23 -53 63 -89 55
-112 -24 -63 -28 17 -52 31 -55 31 -6 0 -5 -186 2 -192 3 -4 27 5 54 19 53 27
70 24 70 -11 0 -38 -42 -90 -83 -103 -50 -17 -111 2 -115 35 -3 18 -10 22 -37
22 l-34 0 3 46 c5 62 18 73 45 35 24 -33 47 -42 37 -15 -3 9 -1 34 5 56 8 32
7 44 -6 64 -22 34 -67 32 -96 -3 -19 -24 -21 -25 -15 -6 15 48 -43 173 -79
173 -9 0 -21 -21 -30 -53 -13 -47 -14 -59 -1 -101 13 -44 13 -47 -2 -40 -44
18 -60 16 -77 -10 -14 -21 -15 -31 -5 -60 6 -19 18 -40 26 -46 7 -7 14 -22 15
-34 0 -18 2 -16 14 9 7 17 16 38 19 49 6 18 7 18 26 1 11 -10 17 -22 14 -27
-3 -5 2 -18 11 -28 19 -21 13 -40 -14 -40 -25 0 -43 -21 -31 -36 17 -19 -67
-36 -115 -23 -48 14 -103 65 -86 82 8 8 22 8 56 -1 25 -7 49 -12 55 -12 7 0
-42 166 -53 176 -2 2 -18 -16 -35 -41 -17 -25 -36 -45 -42 -45 -15 0 -12 51 5
100 18 52 18 53 1 47 -8 -3 -16 -3 -19 -1 -8 8 28 130 47 158 21 32 69 45 125
33 41 -9 45 -7 66 19 27 33 80 54 115 44 14 -4 52 -19 85 -33z m676 -7 c25
-29 27 -30 75 -21 84 16 119 -12 157 -126 16 -47 16 -68 0 -69 -7 -1 -15 -2
-17 -3 -3 0 3 -25 13 -53 31 -96 12 -114 -43 -42 -23 30 -37 42 -40 33 -21
-61 -56 -170 -56 -174 0 -2 19 2 41 10 57 20 79 19 79 -4 0 -36 -89 -85 -137
-76 -67 14 -70 15 -69 37 1 15 -6 24 -19 26 -30 6 -41 20 -27 34 7 7 12 20 12
29 0 10 8 25 17 34 16 16 17 16 30 -1 7 -10 13 -28 13 -41 0 -13 5 -23 10 -23
6 0 10 5 10 11 0 5 11 27 25 47 29 43 31 68 8 94 -18 21 -45 23 -75 7 -19 -10
-20 -9 -13 7 25 61 11 184 -21 184 -8 0 -27 -19 -44 -42 -24 -32 -30 -51 -30
-90 0 -52 -8 -60 -28 -28 -16 26 -63 26 -87 0 -14 -15 -16 -28 -10 -57 4 -21
7 -48 7 -60 0 -31 13 -29 39 8 27 39 44 26 44 -36 1 -43 0 -44 -35 -47 -29 -2
-35 -7 -33 -24 2 -17 -6 -24 -40 -33 -70 -20 -141 20 -153 86 -9 50 4 56 62
29 l52 -24 6 45 c7 53 8 153 1 153 -2 0 -27 -13 -55 -30 -28 -16 -53 -30 -55
-30 -21 0 16 82 51 118 11 10 12 18 5 25 -6 6 -11 26 -11 44 0 27 4 34 28 39
15 3 63 21 107 39 44 18 89 35 100 37 35 7 79 -10 106 -42z m-404 24 c8 -22
-10 -49 -32 -49 -10 0 -22 7 -28 16 -15 24 -1 49 28 49 15 0 28 -7 32 -16z
m-1904 -22 c-7 -4 -11 -31 -10 -64 1 -48 -3 -62 -23 -83 -13 -13 -32 -27 -42
-31 -13 -4 -17 -11 -13 -21 5 -14 3 -14 -11 -2 -19 15 -114 158 -114 170 0 13
38 11 42 -1 2 -6 21 -2 47 10 59 29 166 48 124 22z m1900 -63 c15 -24 1 -49
-27 -49 -29 0 -44 33 -25 56 15 18 38 15 52 -7z m-2148 -6 c12 -31 19 -197 8
-190 -5 3 -26 2 -46 -4 -42 -11 -85 5 -111 43 -15 21 -16 21 -36 3 -27 -25
-35 -14 -16 24 19 37 68 74 120 92 22 8 41 22 44 32 2 9 10 17 17 17 7 0 16
-8 20 -17z m4161 -64 c10 -11 32 -27 49 -34 l30 -12 -30 -14 c-16 -7 -32 -16
-35 -20 -12 -14 -43 -18 -63 -7 -12 7 -32 11 -44 9 -29 -3 -29 3 -1 42 42 61
64 69 94 36z m-4482 -115 c18 -17 18 -20 10 -63 -7 -34 -24 -40 -49 -15 -24
24 -45 2 -27 -27 17 -27 11 -33 -22 -18 -54 25 -39 96 27 124 41 18 43 18 61
-1z m828 -36 c37 -25 64 -84 74 -155 8 -63 -7 -71 -25 -14 -6 22 -29 74 -49
115 -21 42 -37 76 -34 76 2 0 18 -10 34 -22z m1642 -14 c7 -19 -10 -44 -31
-44 -17 0 -27 24 -19 45 7 20 42 19 50 -1z m-1941 -84 c-7 -38 19 -70 58 -70
19 0 36 10 57 36 18 22 37 35 48 32 27 -5 27 -21 -1 -62 -29 -43 -31 -69 -9
-148 15 -53 15 -60 0 -82 -10 -16 -30 -28 -53 -32 -31 -6 -39 -3 -55 17 -87
110 -85 109 -142 109 -35 0 -58 5 -66 15 -17 21 -5 32 43 40 96 16 125 52 78
99 l-30 30 27 23 c38 32 53 30 45 -7z m2617 -20 c0 -11 -7 -23 -15 -27 -21 -8
-28 1 -20 26 8 27 35 27 35 1z m1050 7 c0 -19 -21 -37 -42 -37 -21 0 -24 20
-6 38 16 16 48 15 48 -1z m-2425 -18 c8 -25 1 -34 -20 -26 -19 8 -20 47 -1 47
8 0 18 -9 21 -21z m-948 -42 c23 -33 39 -70 54 -122 l8 -30 -30 35 c-16 19
-36 50 -45 69 -34 80 -27 108 13 48z m-662 -146 c4 -7 20 -2 43 12 20 13 45
27 56 30 16 6 16 3 -6 -25 -13 -18 -35 -54 -48 -81 -14 -26 -29 -46 -34 -44
-17 6 -45 93 -45 143 -1 66 12 79 21 20 3 -25 9 -50 13 -55z m2593 74 c222
-18 335 -40 340 -67 3 -14 -4 -18 -32 -18 -19 0 -46 4 -61 10 -46 18 -364 40
-565 40 -199 0 -487 -21 -550 -40 -53 -15 -100 -13 -100 5 0 9 10 20 23 25 27
11 186 37 242 40 22 1 81 5 130 9 153 13 367 12 573 -4z m-1971 -115 c12 -28
27 -50 32 -50 6 0 11 21 12 48 l1 47 19 -40 c24 -49 19 -122 -10 -168 -12 -18
-21 -30 -21 -27 0 3 -16 50 -35 105 -35 99 -42 135 -27 135 4 0 17 -23 29 -50z
m1723 5 l0 -35 -65 0 c-65 0 -65 0 -65 28 0 16 3 32 7 35 3 4 33 7 65 7 l58 0
0 -35z m-2176 -182 c6 -15 3 -14 -14 3 -39 38 -47 134 -16 189 9 16 12 1 17
-77 4 -54 10 -106 13 -115z m1832 193 c15 -12 17 -18 8 -33 -23 -37 -114 -31
-114 7 0 37 68 53 106 26z m649 0 c41 -30 -18 -74 -75 -55 -53 19 -31 68 31
69 14 0 34 -6 44 -14z m-926 -35 c20 -13 6 -57 -21 -64 -44 -12 -76 31 -46 61
14 14 47 15 67 3z m1172 -1 c46 -25 5 -79 -45 -60 -28 10 -34 38 -14 58 15 15
33 15 59 2z m-2591 -154 c16 -16 30 10 30 57 0 20 5 37 10 37 6 0 10 -28 10
-63 0 -63 -30 -145 -56 -154 -18 -6 -62 202 -49 234 5 13 12 3 25 -41 10 -32
24 -64 30 -70z m2410 85 c129 -24 169 -40 185 -72 14 -27 14 -33 0 -63 -9 -18
-27 -38 -41 -45 -33 -15 -34 -14 -34 9 0 27 -23 37 -115 49 -246 33 -615 33
-860 0 -88 -12 -115 -22 -115 -44 0 -21 -37 -18 -60 5 -29 29 -35 66 -16 95
19 29 78 48 216 69 120 18 738 16 840 -3z m1530 -67 c0 -16 -23 -44 -35 -44
-19 0 -19 9 2 32 16 17 33 24 33 12z m160 -27 c0 -12 -7 -35 -15 -51 -8 -15
-15 -29 -15 -30 0 -2 13 -1 29 2 37 5 47 -12 27 -43 -18 -28 -36 -33 -36 -10
0 24 -26 17 -38 -10 -10 -21 -9 -27 3 -32 9 -3 13 -12 10 -23 -12 -39 72 -71
109 -40 25 20 19 40 -14 47 -16 3 -30 7 -30 9 0 8 43 74 49 74 3 0 11 -10 16
-22 18 -39 35 -33 35 11 0 23 5 41 10 41 6 0 29 -12 52 -26 l42 -27 -37 -19
c-47 -23 -47 -38 -1 -38 l35 0 -18 -31 c-29 -49 -40 -55 -61 -29 -11 13 -24
20 -30 16 -18 -11 -14 -71 6 -89 22 -20 72 -33 72 -18 0 6 7 8 15 5 20 -8 45
13 45 38 0 14 -5 18 -19 13 -15 -4 -18 -1 -14 19 7 33 34 42 53 18 16 -19 17
-19 48 9 27 24 62 39 62 25 0 -23 -28 -70 -49 -81 -24 -13 -24 -14 -5 -15 12
0 28 -7 35 -16 11 -14 10 -19 -11 -36 -24 -19 -24 -19 -32 1 -9 26 -20 26 -43
1 -14 -16 -16 -23 -7 -32 8 -8 8 -15 1 -24 -7 -9 -2 -18 20 -33 16 -12 34 -21
40 -21 9 0 9 -5 1 -20 -10 -19 -12 -18 -58 15 -151 113 -273 190 -394 251 -76
37 -138 70 -138 73 0 4 4 12 9 19 6 11 16 8 46 -12 40 -28 55 -32 55 -16 0 6
10 10 23 10 17 0 22 6 24 30 2 30 -11 48 -22 30 -11 -18 -25 -11 -25 14 0 13
7 29 15 36 13 10 19 10 34 -4 18 -17 20 -16 31 18 18 55 60 71 60 23z m-331
-20 c13 -16 5 -27 -19 -27 -20 0 -43 24 -33 33 11 12 40 8 52 -6z m170 -19 c0
-13 -4 -31 -8 -41 -6 -17 -9 -17 -19 -4 -10 11 -10 21 -1 41 15 32 29 34 28 4z
m-375 -23 c-4 -17 -2 -25 6 -25 10 0 10 -3 0 -15 -15 -18 -45 -21 -34 -3 4 6
-1 17 -11 24 -24 18 -12 44 20 44 22 0 25 -3 19 -25z m-1249 -8 c149 -29 373
-176 503 -330 74 -88 77 -91 102 -127 20 -29 24 -44 22 -95 -3 -66 -4 -65 83
-144 45 -41 76 -105 110 -231 83 -309 74 -627 -27 -935 -57 -174 -160 -362
-265 -483 -27 -32 -31 -33 -166 -49 -119 -15 -154 -15 -267 -4 -71 7 -142 16
-157 20 -28 8 -28 8 19 28 163 73 350 265 432 445 67 147 89 218 111 360 55
358 -41 712 -264 977 -99 117 -262 222 -401 257 -88 23 -274 23 -358 0 -301
-81 -541 -348 -637 -712 -38 -139 -49 -301 -36 -484 7 -94 55 -264 102 -360
16 -33 29 -62 29 -65 0 -9 64 -110 93 -148 l30 -38 -66 -65 c-37 -36 -90 -96
-118 -135 -29 -38 -53 -69 -55 -69 -2 0 -11 12 -20 26 -17 25 -17 25 52 95 37
38 65 69 60 69 -10 0 -85 -60 -123 -98 l-25 -25 -19 24 c-47 59 -112 165 -150
241 -77 158 -149 416 -149 534 0 51 1 53 38 71 l37 18 9 190 c12 281 12 316
-5 350 -15 28 -14 35 10 100 70 193 173 357 321 507 186 189 327 267 540 302
59 9 538 -4 605 -17z m1435 -2 c10 -13 9 -15 -8 -15 -22 0 -36 13 -25 24 10
10 20 7 33 -9z m-70 -25 c20 -28 65 -35 95 -16 13 9 31 16 40 16 17 0 20 -16
5 -25 -8 -5 -7 -11 1 -21 6 -8 10 -16 8 -18 -2 -1 -29 -21 -59 -43 -70 -52
-140 -129 -140 -155 0 -14 100 -8 131 8 17 8 38 13 47 9 15 -5 13 -9 -8 -25
-38 -29 -112 -40 -260 -39 -74 0 -209 -3 -300 -8 -173 -10 -207 -19 -250 -65
l-21 -23 -27 35 c-15 19 -51 64 -81 99 l-54 64 30 26 c47 39 173 84 209 75 16
-5 35 -7 43 -5 29 6 79 -10 84 -27 5 -13 36 -72 54 -101 2 -3 13 5 26 17 12
11 35 26 51 32 23 8 27 14 21 33 -17 55 -17 68 0 87 10 11 25 20 33 20 13 0
13 -3 -1 -18 -22 -24 -23 -64 -2 -56 10 4 15 0 15 -11 0 -14 6 -16 30 -11 17
3 30 1 30 -4 0 -13 -34 -30 -59 -30 -25 0 -26 -16 -5 -58 l15 -32 92 0 91 0
-54 55 c-49 50 -55 60 -55 98 0 51 26 78 67 70 44 -9 74 4 88 37 15 35 48 40
70 10z m-3031 -116 c55 -106 56 -108 59 -71 3 37 8 43 28 29 13 -9 16 -172 3
-172 -5 0 -28 17 -51 39 l-42 38 -15 -30 c-29 -56 -36 -42 -33 67 2 69 -2 123
-12 160 -22 86 -1 65 63 -60z m-116 -56 c21 -52 39 -183 32 -240 l-6 -53 71
-73 c58 -60 74 -71 86 -61 12 9 14 6 14 -20 0 -17 5 -31 11 -31 6 0 41 29 78
65 37 36 70 65 74 65 3 0 -17 -47 -44 -105 -27 -57 -49 -111 -49 -120 0 -26
-25 -17 -44 16 -21 36 -75 97 -219 249 -54 58 -111 122 -126 142 -14 21 -29
38 -32 38 -13 0 -39 -118 -39 -173 0 -31 -4 -57 -9 -57 -12 0 -67 64 -86 101
-21 40 -31 124 -16 133 7 4 21 -15 37 -51 l26 -58 18 55 c9 30 27 75 38 99
l20 44 26 -50 c23 -46 94 -113 119 -113 6 0 8 45 4 115 -3 63 -4 115 -1 115 2
0 10 -15 17 -32z m-604 -165 c34 -63 46 -56 79 42 17 49 21 54 21 30 1 -37 71
-153 89 -148 16 6 15 -12 -3 -47 -19 -37 -31 -38 -38 -2 -4 15 -17 40 -30 57
l-25 30 -16 -35 c-29 -60 -41 -80 -46 -80 -8 0 -56 97 -75 149 -18 53 -19 110
-2 148 11 26 12 24 18 -37 3 -38 15 -83 28 -107z m4591 66 c0 -8 5 -7 15 1 20
17 25 10 14 -19 -7 -18 -12 -21 -23 -12 -10 8 -17 6 -30 -8 -10 -11 -25 -17
-37 -14 -18 5 -17 8 13 34 36 31 48 35 48 18z m-2555 -51 c3 -13 4 -241 3
-508 l-3 -485 -404 0 -405 0 2 65 c6 162 71 386 153 521 73 123 144 204 237
274 120 90 246 139 399 154 7 0 15 -9 18 -21z m220 -20 c205 -77 356 -216 468
-429 73 -139 127 -341 127 -474 l0 -75 -395 0 -395 0 0 506 0 507 68 -7 c37
-3 94 -16 127 -28z m2305 -8 c0 -5 -5 -10 -11 -10 -5 0 -7 5 -4 10 3 6 8 10
11 10 2 0 4 -4 4 -10z m-1230 -235 c35 -9 102 -15 183 -15 89 0 138 -4 162
-15 30 -12 42 -12 81 0 56 17 63 14 92 -30 16 -26 19 -35 8 -35 -8 0 -16 7
-20 15 -4 12 -22 15 -83 14 -43 0 -125 3 -183 8 -58 5 -108 5 -111 0 -3 -4
-12 -7 -20 -5 -9 2 -14 -5 -13 -19 0 -13 -3 -23 -7 -23 -17 0 -40 34 -36 51 7
26 -13 36 -29 15 -27 -37 22 -99 76 -95 47 4 60 -6 60 -45 0 -19 9 -45 21 -60
14 -17 16 -26 7 -25 -7 0 -27 19 -43 42 -19 26 -44 46 -65 53 -41 14 -95 73
-121 132 -19 43 -22 52 -16 52 1 0 27 -7 57 -15z m-3005 -191 c30 -51 67 -79
95 -71 35 9 59 -42 75 -157 7 -52 6 -51 74 -30 23 7 24 6 19 -48 -4 -52 -3
-55 16 -50 18 5 19 3 8 -11 -8 -9 -22 -19 -33 -22 -28 -9 -23 -30 19 -77 l37
-41 -47 6 c-45 6 -48 5 -48 -16 0 -31 34 -82 67 -103 15 -10 30 -20 33 -22 3
-2 -6 -12 -20 -23 l-25 -19 34 -31 c31 -29 38 -31 92 -27 57 4 59 4 59 -21 0
-75 64 -316 117 -438 36 -85 125 -242 169 -300 14 -18 21 -33 15 -33 -5 0 -12
4 -16 9 -3 6 -24 13 -48 16 -32 5 -54 1 -91 -16 -63 -28 -118 -22 -217 23 -41
19 -100 45 -133 59 -32 13 -79 44 -106 70 -73 70 -75 101 -16 282 89 275 104
401 57 498 -26 56 -71 83 -162 100 -82 15 -138 6 -140 -21 -1 -11 -3 -24 -4
-30 -1 -5 -3 -15 -4 -21 0 -6 -44 -55 -96 -109 -52 -54 -99 -108 -104 -121
-10 -29 4 -288 19 -333 13 -41 14 -83 5 -193 l-8 -92 41 -38 c22 -21 56 -50
75 -66 19 -15 50 -56 68 -92 19 -36 37 -65 40 -65 3 0 18 11 33 25 15 14 29
25 31 25 2 0 10 -27 17 -61 l12 -60 40 7 c21 3 53 12 71 20 18 7 35 10 39 7 3
-4 6 -30 6 -60 0 -42 -3 -53 -16 -53 -13 0 -15 7 -11 35 6 37 -5 39 -30 4 -7
-9 -24 -20 -37 -23 -36 -9 -52 -71 -32 -119 8 -19 20 -38 26 -42 9 -6 -1 -15
-31 -30 l-44 -23 -28 24 c-16 13 -33 24 -38 24 -5 0 -9 4 -9 9 0 6 19 9 43 8
36 -2 42 1 45 20 2 12 -4 33 -13 47 -9 14 -14 30 -10 36 10 16 -14 40 -40 40
-14 0 -26 -9 -33 -25 -6 -14 -16 -25 -22 -25 -14 0 -12 14 7 48 26 45 8 60
-69 58 -81 -2 -96 -22 -56 -78 7 -9 9 -21 4 -25 -4 -4 -17 4 -28 20 -30 41
-78 31 -78 -16 0 -10 -8 -32 -17 -48 -17 -28 -17 -30 3 -50 18 -17 24 -19 47
-8 15 7 30 9 35 4 4 -4 1 -10 -6 -12 -31 -11 -63 -48 -57 -66 4 -9 13 -17 21
-17 7 0 28 -13 46 -29 44 -37 77 -26 78 27 0 36 17 25 23 -15 4 -25 2 -40 -6
-45 -6 -4 -27 -18 -46 -31 l-34 -24 -22 41 c-17 33 -30 43 -66 53 -39 12 -47
11 -69 -5 -14 -10 -38 -22 -53 -26 -42 -10 -97 37 -121 103 -10 28 -21 51 -25
51 -4 0 -22 -21 -41 -46 -39 -55 -83 -84 -127 -84 -84 0 -224 187 -217 288 7
105 40 149 239 318 286 245 301 258 331 304 33 50 46 161 38 331 -8 153 -2
191 49 306 30 68 47 90 47 60 0 -6 -11 -53 -25 -102 -25 -92 -31 -129 -17
-123 4 2 38 36 76 75 60 63 69 78 72 114 4 53 21 70 78 76 34 4 52 13 66 30
l20 25 10 -27 c5 -14 10 -33 10 -41 0 -8 7 -14 15 -14 8 0 31 35 55 83 35 74
40 92 40 155 0 59 -4 76 -20 92 -22 22 -36 25 -46 9 -10 -17 -64 40 -90 96
-26 55 -30 114 -12 166 l12 34 8 -63 c4 -40 17 -80 33 -108z m3205 72 c-13
-13 -45 17 -35 34 5 8 12 6 26 -6 13 -12 16 -21 9 -28z m58 -38 c17 -17 15
-28 -4 -28 -11 0 -15 -6 -11 -20 7 -26 -6 -33 -29 -15 -17 14 -18 16 -2 25 10
6 14 18 11 30 -6 23 15 28 35 8z m82 -128 c20 -40 49 -56 87 -48 19 4 51 -19
211 -152 87 -72 92 -79 137 -175 71 -154 114 -210 116 -152 0 12 9 40 20 62
l19 40 -5 -35 c-3 -19 -10 -69 -16 -110 -6 -41 -14 -100 -19 -130 -12 -82 -12
-212 2 -251 6 -19 28 -59 50 -89 29 -42 38 -66 38 -96 0 -28 6 -47 20 -59 29
-26 25 -43 -15 -59 -22 -10 -37 -24 -41 -40 -11 -44 4 -76 41 -92 40 -16 44
-35 15 -71 -25 -32 -25 -54 0 -86 16 -20 31 -27 68 -29 47 -3 47 -3 44 -36 -5
-46 46 -97 86 -87 15 3 35 13 44 22 13 11 21 12 37 3 25 -13 26 -33 5 -113
-22 -87 -49 -133 -93 -163 -48 -31 -65 -25 -112 41 -21 29 -36 42 -42 36 -5
-5 -22 -39 -37 -74 -43 -103 -127 -217 -159 -217 -9 0 -24 7 -35 15 -17 13
-15 16 30 59 27 25 54 46 61 46 25 0 22 20 -4 26 -15 4 -39 15 -53 25 -38 28
-103 9 -132 -40 -12 -20 -23 -38 -24 -40 -8 -9 -94 55 -89 67 3 8 5 25 5 38 0
13 5 24 10 24 6 0 10 -13 10 -30 0 -46 58 -65 74 -24 3 8 22 22 41 30 19 8 35
19 35 25 0 22 -21 47 -45 53 -14 4 -25 11 -25 17 0 6 6 9 13 6 45 -17 55 -16
72 3 16 18 17 21 1 44 -9 14 -16 39 -16 55 0 25 -5 32 -27 37 -21 6 -31 2 -48
-21 -15 -17 -25 -23 -29 -16 -4 6 0 18 8 27 19 19 21 50 4 61 -7 4 -39 8 -71
8 -71 1 -89 -17 -60 -65 22 -39 9 -51 -18 -16 -30 38 -60 32 -72 -14 -5 -19
-13 -39 -18 -44 -15 -16 -10 -54 8 -65 11 -5 26 -5 42 0 16 6 28 6 35 -1 7 -7
5 -10 -6 -10 -9 0 -29 -11 -45 -24 l-28 -24 -37 19 c-21 11 -38 21 -38 24 0 2
9 19 20 37 10 18 18 44 16 58 -5 38 -17 70 -27 70 -4 0 -24 13 -42 30 -42 37
-49 37 -41 5 4 -15 1 -32 -6 -40 -7 -9 -14 -34 -17 -57 -2 -23 -5 -44 -8 -46
-2 -2 -32 9 -67 26 -35 16 -87 38 -115 48 -29 10 -53 22 -53 27 0 13 22 51 34
59 22 15 25 7 10 -27 -13 -31 -13 -35 1 -35 33 0 84 30 151 87 90 77 183 121
349 167 147 41 170 50 197 76 36 37 37 83 2 152 -23 45 -26 61 -22 134 3 90
25 136 66 142 20 3 20 8 15 110 -4 77 -1 128 11 182 l16 75 -34 50 c-42 61
-76 129 -76 150 0 21 -6 19 -48 -14 -35 -28 -85 -47 -217 -86 -109 -31 -183
-74 -211 -120 -42 -72 -28 -207 33 -318 10 -17 38 -66 62 -107 74 -126 91
-168 79 -201 -11 -31 -74 -87 -123 -108 -114 -50 -198 -70 -332 -80 -126 -8
-136 -16 -204 -155 -27 -54 -53 -104 -58 -110 -5 -6 -35 -20 -66 -31 -32 -10
-58 -24 -60 -29 -1 -6 -14 -49 -30 -96 -34 -104 -84 -198 -181 -336 -41 -58
-74 -109 -74 -114 0 -4 -28 -19 -62 -33 -57 -23 -65 -24 -80 -10 -27 24 -66 9
-76 -29 -12 -46 -35 -50 -31 -5 4 37 -14 67 -39 67 -22 0 -52 -30 -52 -52 0
-15 -5 -18 -20 -13 -25 8 -70 -19 -70 -40 0 -8 9 -24 20 -35 11 -11 20 -22 20
-25 0 -3 -26 -18 -57 -34 -32 -17 -78 -44 -103 -60 -25 -17 -48 -31 -52 -31
-4 0 -48 25 -98 55 -50 30 -95 55 -100 55 -20 0 -21 23 -1 36 26 19 27 46 1
69 -13 12 -27 15 -45 11 -19 -5 -25 -3 -25 11 0 22 -29 53 -50 53 -26 0 -40
-21 -40 -62 0 -45 -24 -44 -34 2 -7 36 -47 51 -74 27 -15 -13 -23 -13 -70 6
-46 17 -60 30 -111 101 -142 197 -226 359 -243 470 -2 12 -21 26 -55 39 -42
16 -53 24 -53 42 0 12 -9 34 -21 49 -17 22 -28 26 -69 26 -39 0 -52 4 -64 22
-21 29 -12 38 37 38 91 0 133 -26 176 -112 19 -37 28 -35 40 10 14 48 14 98 0
124 -20 38 -1 29 50 -24 28 -29 51 -62 51 -74 0 -28 64 -100 95 -108 14 -4 33
-2 42 3 12 6 30 1 63 -20 76 -47 210 -106 280 -124 36 -9 68 -20 72 -23 3 -4
8 -27 10 -50 3 -43 2 -44 -37 -57 -41 -15 -75 -47 -75 -71 0 -10 13 -14 45
-14 38 0 52 -6 88 -37 76 -68 114 -78 177 -46 28 14 38 14 64 3 77 -32 115
-23 191 45 32 28 48 35 82 35 35 0 43 3 43 18 0 26 -38 59 -80 69 -34 9 -35
11 -35 57 l0 47 100 33 c136 45 184 67 281 131 81 53 105 71 192 150 185 166
352 461 419 740 59 245 61 548 6 769 -16 66 -13 78 11 41 28 -42 76 -83 111
-95 17 -6 37 -21 43 -35 15 -33 49 -53 100 -60 42 -5 155 -56 167 -75 3 -5 13
-10 21 -10 18 0 18 46 0 143 -20 105 -50 159 -111 202 -19 14 -19 14 7 15 22
0 32 -8 48 -40z m70 -6 c0 -2 -7 -4 -15 -4 -8 0 -15 4 -15 10 0 5 7 7 15 4 8
-4 15 -8 15 -10z m862 -11 c25 -22 23 -33 -8 -33 -19 0 -25 -4 -20 -15 7 -19
-11 -20 -29 -1 -12 12 -11 15 6 19 16 4 19 11 14 26 -8 26 11 28 37 4z m26
-105 c14 -14 16 -44 3 -52 -11 -7 -44 42 -36 54 8 13 18 13 33 -2z m103 -28
c24 -13 27 -55 3 -46 -10 4 -22 -1 -29 -10 -14 -20 -35 -11 -35 15 0 12 7 18
18 17 11 -1 16 5 14 17 -3 20 2 21 29 7z m26 -125 c2 -6 -3 -20 -11 -30 -14
-19 -15 -19 -35 5 -11 14 -20 29 -21 33 0 12 63 4 67 -8z m103 -64 c0 -3 -5
-13 -10 -21 -8 -13 -11 -12 -24 5 -13 19 -15 19 -21 3 -4 -10 -11 -18 -15 -18
-10 0 -18 31 -12 48 3 10 7 10 19 0 13 -11 18 -10 27 5 10 16 12 16 24 0 6 -9
12 -19 12 -22z m-51 -133 c12 -34 9 -44 -9 -33 -6 4 -9 13 -6 21 9 22 -27 17
-42 -6 -8 -13 -9 -26 -4 -37 6 -11 11 -12 16 -4 10 16 26 14 26 -4 0 -18 21
-20 38 -3 9 9 12 9 12 -3 0 -23 -21 -39 -51 -39 -36 0 -54 -22 -39 -49 23 -44
-16 -101 -69 -101 -36 0 -51 -27 -36 -64 23 -54 -13 -95 -82 -96 -30 0 -43
-26 -30 -61 9 -24 8 -33 -9 -56 -12 -16 -33 -29 -48 -31 -32 -4 -57 -45 -38
-64 29 -29 2 -109 -28 -87 -11 8 -12 12 -2 16 6 2 12 17 12 33 0 23 -3 27 -20
23 -12 -3 -20 0 -20 7 0 8 -9 10 -25 6 -14 -4 -25 -3 -25 2 0 15 24 32 46 32
33 0 49 25 35 56 -6 14 -11 35 -11 48 0 32 42 68 74 64 34 -4 58 27 43 59 -7
16 -6 31 2 52 12 29 35 41 78 41 27 0 40 38 24 68 -23 44 17 92 77 92 32 0 46
18 31 41 -16 25 -10 59 16 84 32 33 51 31 64 -7z m-2771 -462 c1 -297 -1 -463
-8 -471 -6 -7 -54 -15 -122 -19 -113 -6 -113 -6 -176 26 -46 23 -67 40 -79 65
-18 39 -55 71 -92 80 -55 12 -142 122 -216 270 -64 130 -114 329 -115 456 l0
57 403 -2 402 -3 3 -459z m811 387 c-1 -74 -42 -271 -70 -339 -100 -245 -254
-427 -437 -517 -31 -15 -34 -15 -54 5 -19 19 -29 20 -102 15 -44 -3 -91 -9
-103 -13 l-23 -6 0 466 0 466 395 0 395 0 -1 -77z m1519 -612 c3 -8 -1 -12 -9
-9 -7 2 -15 10 -17 17 -3 8 1 12 9 9 7 -2 15 -10 17 -17z m-4193 -121 c8 -24
12 -46 10 -48 -2 -2 -21 6 -44 18 -49 24 -53 50 -19 120 l21 45 9 -45 c6 -25
16 -65 23 -90z m4300 18 c28 -29 62 -73 76 -98 30 -54 68 -166 76 -226 5 -37
3 -44 -11 -44 -10 0 -21 13 -28 30 -13 39 -60 65 -89 50 -28 -16 -47 2 -41 39
5 37 -12 69 -44 81 -35 14 -40 37 -15 64 26 28 27 66 1 94 -20 21 -25 43 -13
55 16 16 40 4 88 -45z m-2989 -2 c6 -15 -79 -101 -122 -124 -13 -7 -26 -25
-29 -40 -7 -31 -29 -77 -51 -107 -14 -19 -14 -19 -36 2 l-21 21 48 64 c76 101
172 198 196 198 5 0 12 -6 15 -14z m2844 -36 c0 -6 12 -9 28 -8 19 2 27 -2 27
-12 0 -9 -8 -14 -19 -13 -11 1 -25 -6 -32 -15 -10 -14 -13 -13 -23 5 -6 12 -8
29 -5 37 7 18 24 22 24 6z m-2738 -19 c14 -17 13 -22 -31 -73 l-47 -55 -33 29
-33 30 43 44 c47 47 75 55 101 25z m-2447 -142 c-25 -37 -35 -62 -35 -90 0
-56 -14 -48 -35 20 -25 84 -8 105 98 120 4 1 -8 -22 -28 -50z m2475 34 c0 -18
-28 -53 -42 -53 -14 0 -9 32 9 52 20 22 33 23 33 1z m-166 -14 c31 -24 32 -62
3 -67 -25 -5 -87 44 -87 69 0 27 49 26 84 -2z m236 1 c0 -5 -11 -26 -25 -47
-14 -20 -46 -78 -71 -127 -58 -117 -70 -134 -86 -118 -9 9 -2 32 32 99 65 127
150 237 150 193z m546 -12 c-4 -13 -11 -147 -15 -298 l-9 -274 -28 -23 c-16
-13 -37 -23 -47 -23 -16 0 -16 3 4 41 16 32 18 47 11 63 -15 32 -92 116 -107
116 -15 0 -83 -74 -104 -113 -12 -23 -11 -31 7 -68 12 -24 19 -45 17 -48 -3
-2 -24 9 -48 26 -52 38 -53 43 -58 348 l-4 220 75 7 c41 4 107 14 145 23 65
14 102 20 149 24 15 1 17 -4 12 -21z m-488 -5 c-44 -92 -152 -300 -159 -308
-22 -22 -27 12 -9 62 29 81 138 253 161 253 6 0 9 -3 7 -7z m2682 -38 c0 -8
-8 -11 -20 -8 -15 4 -20 0 -20 -16 0 -11 -4 -21 -8 -21 -16 0 -32 25 -32 49 0
19 3 22 12 13 17 -17 38 -15 38 4 0 14 3 14 15 4 8 -7 15 -18 15 -25z m735 9
c32 -35 32 -78 0 -109 -25 -26 -68 -32 -95 -15 -12 7 -12 12 -2 22 19 19 14
31 -13 26 -22 -5 -25 -2 -25 22 0 15 11 39 25 54 32 35 78 35 110 0z m-3365 1
c0 -16 -121 -270 -143 -299 -27 -36 -37 -9 -18 47 19 53 105 232 123 255 14
17 38 15 38 -3z m-410 -35 c14 -11 31 -20 38 -20 10 0 9 -5 -2 -22 -8 -13 -28
-50 -44 -82 l-30 -59 -26 26 c-15 15 -26 37 -26 53 0 24 48 124 60 124 3 0 16
-9 30 -20z m160 -24 c-20 -33 -63 -57 -76 -43 -11 10 47 76 69 79 31 5 32 3 7
-36z m834 5 c58 -11 416 -8 434 3 25 15 11 -6 -25 -37 -80 -70 -181 -141 -258
-179 -70 -36 -234 -98 -257 -98 -4 0 -8 18 -8 40 l0 40 47 0 c54 0 48 17 -7
22 -27 2 -35 7 -35 23 0 18 8 20 65 23 76 4 98 17 43 27 -47 8 -116 39 -106
48 3 4 55 7 115 7 70 0 107 4 103 10 -3 6 -22 10 -42 10 -39 0 -152 28 -167
41 -17 15 2 40 26 34 13 -3 45 -9 72 -14z m-583 -103 c-1 -40 1 -98 4 -128 6
-57 -4 -88 -24 -76 -14 9 -14 44 0 85 18 52 2 47 -25 -7 -14 -28 -30 -53 -36
-57 -18 -11 -23 25 -10 68 13 46 79 187 87 187 2 0 4 -33 4 -72z m2747 50 c17
-17 15 -25 -8 -31 -13 -3 -18 -10 -14 -21 4 -11 0 -16 -14 -16 -11 0 -23 7
-26 16 -8 21 -8 21 14 27 13 3 18 10 14 21 -7 19 16 22 34 4z m-3062 -42 c3
-8 -2 -26 -12 -41 -15 -23 -19 -25 -32 -11 -13 13 -13 18 2 40 18 29 34 33 42
12z m3436 -14 c-2 -12 2 -22 7 -22 17 0 13 -27 -5 -34 -27 -10 -36 -7 -29 13
4 13 0 23 -12 30 -17 9 -17 11 2 25 26 20 41 15 37 -12z m-1742 -26 c0 -15
-18 -31 -26 -23 -7 7 7 37 17 37 5 0 9 -6 9 -14z m-2605 -80 c19 -8 35 -17 35
-20 0 -7 -96 -56 -109 -56 -9 0 -21 69 -14 83 7 12 51 8 88 -7z m2559 0 c-8
-20 51 -30 133 -23 46 5 76 2 106 -9 138 -52 365 -169 536 -276 51 -32 94 -58
96 -58 2 0 38 -20 80 -45 208 -123 460 -225 557 -225 15 0 28 -3 28 -8 0 -4
-26 -27 -58 -50 -61 -44 -209 -191 -256 -254 -15 -20 -39 -39 -54 -43 -36 -7
-135 25 -247 83 -82 41 -377 232 -548 354 -37 26 -69 48 -71 48 -2 0 -36 18
-74 39 -84 48 -170 76 -279 92 -79 11 -123 8 -246 -17 l-29 -6 36 56 c20 31
36 58 36 61 0 2 15 35 33 72 18 38 39 90 47 116 15 55 33 70 110 91 70 19 70
19 64 2z m-2209 -15 c22 -10 46 -25 54 -34 19 -24 36 -21 49 8 13 28 17 29 58
15 25 -9 33 -22 58 -101 16 -51 52 -129 81 -177 29 -48 52 -88 51 -89 -1 -1
-42 5 -91 14 -75 12 -104 13 -177 3 -48 -6 -108 -18 -134 -26 -61 -18 -215
-97 -273 -140 -26 -18 -143 -98 -261 -177 -225 -151 -350 -220 -463 -257 -83
-27 -110 -19 -155 43 -43 60 -180 195 -246 242 -61 44 -68 55 -32 55 17 0 31
-11 46 -35 18 -29 25 -33 36 -24 8 6 18 25 22 42 7 26 18 35 77 59 84 34 90
34 110 6 13 -20 17 -21 26 -8 5 8 12 26 15 40 4 20 25 36 97 72 51 26 164 91
252 144 304 183 470 267 630 319 87 28 119 30 170 6z m-755 -56 c18 -21 5 -47
-22 -43 -26 3 -37 36 -16 49 18 12 24 11 38 -6z m3790 0 c16 -19 6 -45 -19
-45 -23 0 -35 28 -20 46 15 18 24 18 39 -1z m446 -242 c-19 -56 -66 -154 -81
-171 -3 -4 -54 19 -83 36 l-22 14 44 52 c24 29 61 83 82 120 l37 68 24 -24 23
-24 -24 -71z m-4496 -3 c17 -16 27 -30 23 -30 -4 0 3 -7 15 -16 22 -15 22 -17
5 -30 -31 -23 -42 -16 -71 46 -33 68 -22 79 28 30z m-55 -104 c18 -13 16 -15
-24 -35 -24 -13 -44 -21 -46 -19 -7 9 -14 56 -8 62 11 11 59 6 78 -8z m1360
-12 c55 -15 160 -84 154 -99 -2 -6 -8 -8 -14 -6 -41 15 -235 64 -305 76 -130
24 -134 28 -55 41 78 14 145 10 220 -12z m1894 10 c66 -8 53 -16 -64 -39 -102
-19 -274 -63 -320 -80 -37 -14 44 61 95 89 27 15 75 31 107 35 57 9 76 9 182
-5z m1659 -44 c14 -13 22 -32 22 -55 0 -73 -86 -95 -224 -55 -84 24 -99 36
-57 45 34 7 137 71 165 103 18 21 19 21 45 3 14 -11 36 -29 49 -41z m-313 -39
c-7 -31 -19 -39 -30 -21 -6 10 24 64 32 56 3 -3 2 -18 -2 -35z m-2895 -161 c0
-3 -10 -10 -22 -15 -26 -11 -35 -49 -17 -71 8 -10 27 -13 60 -12 26 2 48 -1
49 -6 0 -6 -7 -11 -17 -12 -48 -7 -63 -16 -69 -40 -9 -36 21 -67 58 -60 23 4
28 2 28 -13 0 -26 24 -43 57 -39 28 3 28 4 26 66 l-3 64 49 -41 c50 -42 128
-81 163 -81 26 0 22 -8 -33 -58 l-46 -42 -113 21 c-135 25 -325 87 -389 128
-95 62 -144 139 -107 170 13 11 24 11 65 -3 28 -9 60 -16 73 -16 24 0 80 50
91 82 5 15 9 15 51 0 25 -9 46 -19 46 -22z m1070 25 c0 -8 14 -30 31 -50 35
-39 64 -44 122 -20 53 22 76 19 83 -9 9 -36 -2 -60 -49 -105 -77 -75 -245
-140 -466 -182 l-104 -19 -48 43 c-52 47 -58 57 -30 57 34 0 112 39 161 80 52
43 64 43 48 0 -5 -16 -8 -41 -6 -57 2 -22 9 -29 31 -31 33 -4 57 13 57 40 0
15 5 18 20 13 26 -8 70 19 70 44 0 25 -29 49 -64 53 -16 1 -31 9 -34 16 -3 10
11 12 58 10 50 -2 64 0 74 15 13 21 0 46 -35 64 -23 12 -23 12 21 32 55 24 60
25 60 6z m-775 -161 c44 -26 90 -52 102 -58 28 -14 30 -26 3 -26 -59 0 -200
81 -200 116 0 21 8 18 95 -32z m475 32 c0 -17 -61 -70 -105 -90 -39 -19 -115
-32 -115 -20 0 9 198 124 213 124 4 0 7 -6 7 -14z m-955 -173 c178 -89 364
-123 670 -123 209 0 335 13 476 49 84 21 236 89 285 126 18 14 36 25 41 25 4
0 9 -33 10 -73 1 -77 17 -156 54 -280 l23 -78 -19 -37 c-39 -71 -171 -120
-445 -163 -126 -19 -181 -22 -430 -22 -275 1 -417 13 -575 48 -127 29 -266 90
-285 125 -18 34 -10 110 20 197 26 73 30 99 30 189 l0 105 43 -29 c23 -16 69
-43 102 -59z m739 -29 c31 -25 56 -47 56 -50 0 -2 -54 -4 -120 -4 -70 0 -120
4 -120 10 0 11 101 90 117 90 6 0 36 -20 67 -46z"/>
<path d="M1423 5883 c9 -2 23 -2 30 0 6 3 -1 5 -18 5 -16 0 -22 -2 -12 -5z"/>
<path d="M1335 5860 c-3 -5 3 -10 14 -10 12 0 21 5 21 10 0 6 -6 10 -14 10 -8
0 -18 -4 -21 -10z"/>
<path d="M1155 5770 c-19 -8 -19 -9 3 -9 12 -1 22 4 22 9 0 6 -1 10 -2 9 -2 0
-12 -4 -23 -9z"/>
<path d="M1520 5647 c-20 -8 -22 -11 -7 -14 24 -6 22 -43 -3 -43 -13 0 -20 7
-20 20 0 20 -11 26 -23 14 -9 -9 36 -85 47 -81 6 2 19 15 29 30 16 21 18 32
11 55 -8 27 -11 29 -34 19z"/>
<path d="M1262 5542 c-23 -11 -32 -22 -30 -36 4 -27 51 -49 88 -41 28 6 28 6
16 48 -13 48 -27 53 -74 29z m47 -28 c-9 -11 -15 -12 -25 -3 -11 9 -12 15 -3
25 9 11 15 12 25 3 11 -9 12 -15 3 -25z"/>
<path d="M5473 5532 c-16 -5 -20 -11 -14 -20 11 -19 45 -11 49 11 4 18 0 19
-35 9z"/>
<path d="M1630 5141 c0 -5 7 -24 15 -44 20 -47 7 -55 -22 -12 -13 19 -28 35
-33 35 -29 0 12 -80 51 -101 24 -13 49 4 49 32 0 32 -31 99 -46 99 -8 0 -14
-4 -14 -9z"/>
<path d="M3425 4940 c-9 -14 68 -50 94 -43 29 7 26 15 -15 36 -39 19 -70 22
-79 7z"/>
<path d="M3140 4933 c0 -11 67 -53 82 -53 7 0 19 4 26 9 10 6 5 14 -21 30 -33
20 -87 29 -87 14z"/>
<path d="M3713 4932 c-8 -5 2 -16 32 -32 34 -19 48 -22 66 -14 21 10 21 11
-15 32 -39 23 -63 27 -83 14z"/>
<path d="M2902 4893 c-22 -9 38 -43 75 -43 17 0 35 5 38 10 3 6 -2 10 -12 10
-10 0 -27 7 -37 15 -20 15 -40 18 -64 8z"/>
<path d="M3950 4892 c0 -15 58 -42 89 -42 41 0 39 11 -8 33 -39 18 -81 23 -81
9z"/>
<path d="M3374 4724 c3 -9 6 -37 6 -64 0 -64 22 -90 80 -97 66 -7 90 19 90 95
0 32 5 63 12 70 9 9 3 12 -27 12 -39 0 -39 0 -17 -16 44 -31 20 -144 -31 -144
-37 0 -46 14 -50 68 -3 40 0 56 15 72 19 20 19 20 -33 20 -42 0 -50 -3 -45
-16z"/>
<path d="M3638 4708 c16 -21 -10 -130 -33 -138 -14 -5 -7 -10 27 -18 61 -15
60 -15 53 8 -9 29 15 130 32 130 26 0 13 18 -18 24 -52 10 -73 8 -61 -6z"/>
<path d="M3175 4692 c-42 -26 -56 -46 -57 -79 -1 -42 18 -71 55 -82 17 -5 46
-15 64 -22 25 -10 40 -10 72 0 44 13 57 31 17 24 -34 -7 -42 14 -16 42 32 34
29 73 -9 107 -37 33 -82 37 -126 10z m80 -26 c9 -13 18 -39 21 -58 10 -59 -43
-90 -80 -49 -23 25 -33 96 -16 116 19 23 57 18 75 -9z"/>
<path d="M3979 4592 c8 -15 3 -28 -31 -68 -22 -27 -47 -48 -55 -47 -10 1 -7
-7 8 -23 23 -25 50 -34 31 -11 -11 13 -2 33 38 80 25 29 28 19 13 -43 -22 -84
-15 -96 39 -66 24 13 53 27 66 31 22 6 22 5 -8 -37 -17 -23 -38 -42 -46 -40
-26 5 -14 -13 27 -41 33 -23 40 -25 35 -10 -8 26 58 113 86 113 20 0 20 1 3
20 -26 28 -50 33 -87 16 -58 -26 -82 -30 -75 -13 3 8 9 35 12 61 8 49 3 57
-48 87 -16 9 -17 8 -8 -9z"/>
<path d="M2787 4469 c-37 -34 -67 -65 -67 -70 0 -5 9 -13 20 -19 19 -10 20 -9
15 13 -4 15 -1 28 8 36 13 10 22 4 54 -34 21 -25 40 -54 43 -65 4 -17 9 -15
42 16 30 27 34 34 19 34 -11 0 -38 22 -60 49 -37 44 -40 51 -25 59 9 5 26 7
38 4 21 -5 21 -5 2 16 -11 12 -20 22 -21 22 -1 0 -31 -28 -68 -61z"/>
<path d="M2664 4338 c-11 -13 -26 -32 -34 -42 -14 -18 -13 -19 3 -13 25 9 118
-61 113 -85 -6 -29 8 -21 42 21 34 42 42 62 18 42 -12 -10 -25 -4 -68 30 -29
23 -52 48 -52 55 2 18 1 18 -22 -8z"/>
<path d="M4220 4305 c-30 -7 -57 -13 -60 -13 -3 0 -17 0 -33 -1 l-27 -1 17
-27 c14 -22 19 -24 21 -10 5 25 39 21 58 -8 17 -27 10 -50 -13 -41 -13 5 -12
1 2 -21 41 -64 45 -68 45 -51 0 8 16 50 35 92 49 108 51 104 -45 81z m10 -35
c-13 -23 -26 -26 -33 -6 -7 18 1 26 25 26 16 0 17 -3 8 -20z"/>
<path d="M2572 4194 c-52 -36 -70 -136 -32 -174 42 -42 121 -16 155 50 22 42
18 74 -11 109 -29 35 -75 41 -112 15z m65 -49 c48 -29 57 -60 23 -90 -23 -20
-54 -15 -93 16 -33 25 -35 62 -5 83 28 20 23 21 75 -9z"/>
<path d="M4377 4156 c-3 -7 -29 -25 -58 -40 -39 -19 -56 -23 -66 -15 -20 17
-16 6 24 -76 33 -66 41 -75 65 -75 37 0 36 16 -1 23 -19 4 -32 15 -41 37 -7
17 -11 32 -9 34 2 2 29 14 60 28 40 18 61 23 73 16 13 -8 13 -1 -6 36 -23 48
-32 55 -41 32z"/>
<path d="M2453 3968 c-1 -7 -7 -27 -14 -44 -15 -39 -5 -81 22 -89 16 -5 31 3
63 34 43 43 61 50 69 29 9 -24 -13 -59 -44 -70 -23 -8 -27 -13 -17 -19 28 -18
45 -9 62 34 28 74 17 107 -36 107 -19 0 -35 -10 -55 -35 -28 -35 -47 -43 -58
-25 -10 16 14 50 43 61 21 8 23 12 12 19 -21 14 -47 12 -47 -2z"/>
<path d="M4480 3835 c-38 -48 -80 -71 -99 -52 -17 17 -20 5 -8 -45 11 -45 27
-65 27 -34 0 14 21 26 46 26 8 0 37 -11 64 -24 44 -21 50 -22 50 -8 0 21 -20
54 -20 33 0 -14 -47 -8 -64 10 -13 12 32 59 51 52 11 -4 13 0 7 23 -16 66 -17
67 -54 19z"/>
<path d="M2370 3550 c0 -34 4 -50 9 -42 6 10 23 12 67 7 33 -4 67 -9 77 -11
14 -5 17 2 17 42 0 41 -2 45 -16 33 -23 -19 -124 -12 -141 9 -10 14 -12 9 -13
-38z"/>
<path d="M4405 3485 c1 -24 4 -48 8 -51 4 -4 7 -2 7 4 0 7 13 12 29 12 25 0
29 -5 37 -42 9 -41 11 -43 44 -43 33 0 35 2 38 35 3 28 1 33 -9 23 -18 -18
-56 -16 -63 3 -9 24 -9 24 34 24 38 0 40 1 40 33 l0 32 -75 -3 c-49 -2 -75 0
-75 7 0 6 -3 11 -8 11 -4 0 -7 -20 -7 -45z"/>
<path d="M2366 3418 c-4 -18 9 -35 16 -20 4 12 78 23 78 12 0 -5 -6 -13 -13
-17 -36 -24 -77 -86 -77 -118 0 -36 13 -47 24 -20 4 11 22 15 71 15 37 0 65
-4 65 -10 0 -5 5 -10 10 -10 6 0 8 11 4 28 -8 33 -15 41 -21 25 -5 -13 -93
-19 -93 -7 0 4 23 32 50 64 28 32 50 62 50 66 0 5 -36 9 -79 9 -68 0 -81 -3
-85 -17z"/>
<path d="M4396 3279 c-6 -39 2 -68 11 -41 7 19 63 16 63 -4 0 -9 -9 -18 -20
-21 -31 -8 -24 -20 17 -26 36 -6 61 1 36 10 -7 3 -13 13 -13 24 0 13 7 19 24
19 31 0 36 -8 29 -43 -3 -16 -16 -34 -32 -42 l-26 -14 31 -1 c34 0 39 11 50
115 l5 40 -73 1 c-44 1 -74 6 -76 13 -8 23 -20 10 -26 -30z"/>
<path d="M4388 3214 c-14 -14 -8 -62 8 -68 30 -11 36 -6 21 17 -8 13 -16 31
-18 41 -2 10 -7 14 -11 10z"/>
<path d="M2423 3184 c-23 -23 -25 -31 -21 -81 4 -48 10 -61 37 -85 17 -15 42
-28 56 -28 37 0 75 39 81 85 l6 40 -24 -28 c-16 -20 -36 -30 -65 -34 -51 -7
-73 8 -73 48 0 31 16 44 72 54 29 6 40 3 57 -14 23 -23 28 -12 9 22 -28 54
-92 64 -135 21z"/>
<path d="M4366 3104 c-11 -29 -7 -42 13 -37 11 3 37 -1 57 -7 35 -12 36 -13
18 -27 -10 -8 -45 -28 -76 -45 -32 -17 -58 -34 -58 -39 0 -4 31 -17 69 -29 39
-12 72 -27 74 -33 6 -17 14 -7 22 28 4 20 4 26 -3 16 -10 -14 -67 -8 -77 8 -2
5 21 22 52 38 41 21 61 39 70 62 13 30 12 31 -10 26 -27 -7 -117 21 -133 41
-10 13 -12 12 -18 -2z"/>
<path d="M2590 2976 c0 -16 -97 -62 -124 -58 -14 2 -16 -2 -11 -15 4 -10 12
-30 17 -45 11 -30 28 -38 28 -13 0 12 28 35 43 35 8 0 30 -61 24 -67 -4 -3
-20 -6 -37 -7 -16 -1 -30 -4 -30 -8 0 -14 35 -78 43 -78 5 0 5 5 2 10 -4 6 22
24 56 40 50 24 66 27 77 17 13 -10 14 -8 7 13 -4 14 -14 38 -23 55 -14 28 -15
28 -23 9 -15 -42 -60 -38 -72 6 -3 13 3 22 24 30 15 7 33 9 38 5 16 -9 14 1
-9 45 -21 42 -30 49 -30 26z"/>
<path d="M4277 2857 c-31 -47 -34 -78 -11 -101 23 -24 49 -19 87 14 36 31 67
39 67 17 0 -18 -38 -57 -55 -57 -23 0 -18 -17 7 -23 12 -4 22 -5 23 -4 0 1 10
21 23 43 27 51 27 59 2 84 -27 27 -43 25 -83 -10 -50 -44 -77 -37 -57 14 7 20
16 26 40 26 36 0 39 13 7 27 -21 10 -26 7 -50 -30z"/>
<path d="M4179 2683 c-23 -32 -46 -63 -51 -70 -6 -7 -4 -19 4 -32 16 -27 31
-27 23 -1 -6 20 21 90 35 90 4 0 19 -11 34 -25 15 -14 31 -25 35 -25 4 0 15
-8 24 -18 15 -16 15 -20 1 -40 -8 -12 -26 -22 -40 -22 -29 0 -31 -11 -5 -27
16 -10 24 -4 70 57 54 74 59 82 37 74 -19 -7 -128 67 -122 83 10 26 -4 12 -45
-44z"/>
<path d="M4180 2611 c0 -7 63 -52 66 -48 1 1 0 14 -3 28 -4 21 -10 26 -34 26
-16 0 -29 -3 -29 -6z"/>
<path d="M4772 4538 c-7 -7 -12 -20 -12 -30 0 -15 8 -18 45 -18 45 0 54 10 36
39 -6 9 -11 10 -15 2 -10 -16 -26 -14 -26 4 0 18 -12 19 -28 3z"/>
<path d="M3333 4400 c-148 -13 -155 -100 -9 -115 36 -4 66 -11 66 -16 0 -5
-45 -9 -101 -9 -94 0 -100 1 -94 19 7 25 -40 71 -73 71 -30 0 -48 -44 -34 -82
6 -16 7 -30 3 -33 -12 -7 -21 6 -21 31 0 52 -41 28 -47 -27 -2 -20 2 -29 12
-29 8 0 15 -4 15 -10 0 -5 7 -10 15 -10 8 0 15 -7 15 -16 0 -12 -8 -14 -46 -8
-39 5 -49 3 -70 -17 -13 -12 -24 -27 -24 -31 0 -5 41 -8 92 -6 84 3 93 5 98
24 6 23 61 74 80 74 7 0 10 -7 6 -16 -3 -9 -6 -19 -6 -24 0 -4 -8 -6 -18 -3
-20 5 -57 -30 -48 -46 3 -5 36 -9 72 -10 70 0 89 13 65 51 -10 17 -9 18 16 12
37 -9 38 -11 24 -28 -18 -21 -5 -36 29 -36 24 0 31 5 36 28 4 15 11 33 17 40
6 8 5 17 -4 28 -11 13 -10 17 4 25 10 6 17 22 17 39 0 31 -2 32 -109 44 -53 5
-69 19 -51 41 9 10 30 15 71 15 57 0 109 15 109 32 0 4 -8 7 -17 7 -10 -1 -50
-5 -90 -9z m40 -187 c-7 -2 -19 -2 -25 0 -7 3 -2 5 12 5 14 0 19 -2 13 -5z"/>
<path d="M2853 4049 c-32 -21 -43 -39 -23 -39 7 0 7 -7 0 -20 -13 -24 -4 -44
15 -36 7 2 16 -2 19 -10 3 -8 12 -14 21 -14 8 0 15 -4 15 -10 0 -5 4 -10 10
-10 13 0 50 -32 50 -44 0 -5 -21 -6 -48 -2 -41 5 -53 3 -75 -15 -46 -35 -35
-44 56 -43 94 1 124 9 132 34 7 21 101 70 135 70 16 0 21 -4 16 -16 -3 -9 -6
-20 -6 -25 0 -5 -20 -9 -44 -9 -43 0 -74 -19 -62 -39 4 -5 30 -10 59 -10 28
-1 67 -2 85 -4 39 -4 57 14 48 49 -7 27 -10 27 53 9 l25 -8 -27 -14 c-33 -17
-35 -33 -4 -33 12 0 32 -3 44 -6 20 -5 26 0 43 41 11 26 18 51 14 56 -3 5 -24
10 -47 10 -23 1 -33 3 -22 6 67 15 85 25 85 48 0 37 -28 45 -149 45 -67 0
-111 4 -111 10 0 12 4 12 154 14 69 1 121 5 123 11 2 6 -50 10 -143 10 -134 0
-147 -2 -160 -20 -13 -18 -13 -22 7 -37 17 -15 41 -18 131 -18 83 0 109 -3
106 -12 -4 -10 -44 -13 -159 -13 l-154 0 3 28 c4 36 -33 77 -70 77 -33 0 -39
-9 -41 -64 l-2 -44 -27 20 c-26 18 -32 30 -40 80 -3 16 -6 16 -35 -3z"/>
<path d="M2740 3743 c-20 -11 -26 -24 -26 -54 -1 -32 2 -39 17 -39 11 0 19 -4
19 -8 0 -5 12 -15 27 -23 15 -8 35 -22 45 -31 10 -10 25 -18 33 -18 8 0 15 -4
15 -9 0 -4 -21 -6 -47 -4 -39 4 -53 1 -75 -17 -16 -12 -28 -25 -28 -29 0 -9
145 -13 183 -5 17 4 32 15 37 30 8 20 16 24 53 24 29 0 53 7 70 20 32 25 102
28 93 4 -3 -9 -6 -19 -6 -23 0 -3 -17 -5 -38 -3 -28 3 -42 -1 -56 -17 -24 -26
-18 -28 96 -34 94 -6 115 3 105 44 -5 18 -2 20 16 15 12 -3 31 -6 42 -6 17 -1
16 -3 -7 -16 -39 -20 -35 -30 14 -38 47 -8 50 -5 71 46 14 32 14 38 1 49 -12
10 -12 14 6 26 28 20 26 51 -6 63 -14 6 -86 10 -160 10 -80 0 -134 4 -134 10
0 6 67 11 167 12 122 2 167 6 171 16 3 9 -36 12 -173 12 -174 0 -215 -6 -215
-34 0 -34 31 -41 176 -41 131 0 167 -5 151 -21 -7 -8 -31 -8 -229 -6 l-168 2
0 31 c0 37 -33 68 -72 69 -34 0 -41 -12 -41 -67 0 -27 -5 -43 -13 -43 -23 0
-74 57 -74 83 0 34 -10 39 -40 20z m625 -133 c3 -5 -1 -10 -9 -10 -9 0 -16 5
-16 10 0 6 4 10 9 10 6 0 13 -4 16 -10z"/>
<path d="M3548 4433 c-18 -3 -28 -10 -28 -22 0 -9 -6 -23 -12 -30 -11 -10 -9
-16 10 -28 21 -15 22 -20 22 -199 0 -153 -3 -185 -16 -198 -14 -15 -14 -17 0
-32 23 -23 24 -349 1 -362 -12 -6 -14 -18 -9 -50 5 -34 9 -40 22 -33 10 5 23
5 33 -2 14 -9 22 -7 37 6 27 25 242 25 267 0 16 -16 18 -16 27 0 8 14 27 17
130 17 95 0 123 -3 132 -15 8 -10 21 -13 47 -9 28 5 38 12 47 37 11 28 10 34
-7 47 -13 10 -21 34 -26 70 -7 54 -17 101 -36 170 -12 39 -15 48 -59 144 -22
47 -30 77 -26 96 4 25 2 29 -19 32 -15 2 -45 28 -82 73 -99 117 -229 209 -350
245 -25 8 -43 20 -46 31 -3 11 -11 18 -19 18 -7 -1 -25 -4 -40 -6z m128 -82
c140 -46 303 -189 384 -336 12 -22 26 -44 30 -50 4 -5 24 -50 43 -100 36 -91
61 -188 72 -283 l6 -52 -323 2 -323 3 -3 423 -2 424 32 -7 c18 -4 56 -15 84
-24z"/>
<path d="M3600 3945 l0 -385 290 0 c270 0 290 1 290 18 -1 40 -40 193 -70 266
-51 129 -106 214 -199 307 -69 69 -102 93 -171 126 -47 23 -97 44 -112 47
l-28 6 0 -385z m138 303 c67 -34 209 -157 182 -157 -8 -1 -21 3 -29 8 -13 8
-65 -11 -76 -29 -3 -5 -12 -7 -20 -3 -10 3 -15 -1 -15 -15 0 -21 39 -52 65
-52 23 0 13 -24 -11 -28 -28 -4 -86 38 -97 70 -7 22 -4 33 12 54 32 41 28 69
-10 71 -42 3 -71 -31 -56 -65 8 -17 8 -25 0 -30 -13 -8 -5 -62 8 -62 5 0 9 -9
9 -20 0 -11 7 -20 15 -20 8 0 20 -9 27 -20 7 -11 18 -20 24 -20 7 0 14 -7 18
-15 11 -31 -53 -43 -106 -20 -14 5 -21 0 -29 -21 -10 -23 -13 -25 -16 -11 -3
10 7 33 21 52 30 39 32 51 11 59 -8 3 -15 14 -15 24 0 10 -5 23 -10 28 -16 16
-9 230 8 227 6 -2 12 4 12 12 0 21 5 20 78 -17z m224 -242 c1 -27 6 -45 12
-44 27 4 67 -28 87 -71 22 -46 79 -232 79 -257 0 -8 -7 -14 -15 -14 -8 0 -15
-7 -15 -15 0 -12 -15 -15 -73 -15 -72 0 -137 19 -137 41 0 5 -7 9 -15 9 -8 0
-15 -7 -15 -15 0 -8 -9 -15 -19 -15 -11 0 -23 -4 -26 -10 -3 -5 -42 -10 -86
-10 -64 0 -79 3 -79 15 0 8 -7 15 -15 15 -12 0 -15 19 -15 110 0 67 4 110 10
110 6 0 10 -4 10 -8 0 -12 111 -9 130 3 26 16 47 15 64 -4 16 -18 16 -20 -8
-44 -23 -23 -25 -29 -14 -52 6 -14 9 -28 5 -31 -13 -14 -49 10 -65 44 -22 47
-57 56 -60 16 -1 -15 -8 -34 -15 -42 -10 -13 -9 -15 11 -10 15 4 22 2 22 -7 0
-19 65 -49 104 -48 68 1 82 11 68 52 -9 24 -7 32 7 45 24 22 32 20 30 -6 -5
-55 1 -70 31 -81 31 -12 37 -21 20 -32 -19 -12 -10 -35 13 -35 32 0 47 18 47
58 0 28 -5 35 -29 43 -16 6 -31 19 -34 30 -6 24 -2 24 26 -1 26 -25 70 -23 75
3 7 34 -20 77 -69 113 -47 34 -61 54 -39 54 6 0 19 -9 30 -20 25 -25 40 -25
40 -1 0 43 -80 68 -100 32 -15 -28 -4 -46 51 -86 44 -33 69 -69 55 -82 -10
-10 -144 131 -151 159 -6 22 -3 27 17 30 25 3 30 23 28 103 -1 30 2 37 10 29
7 -7 12 -33 12 -58z"/>
<path d="M3446 1668 c-19 -10 -22 -58 -4 -76 7 -7 22 -12 34 -12 50 0 61 78
13 91 -14 3 -33 2 -43 -3z"/>
<path d="M6092 3274 c-29 -20 -31 -58 -2 -49 14 5 20 2 20 -9 0 -19 21 -21 38
-4 19 19 15 49 -5 46 -12 -2 -18 3 -17 15 2 21 -5 21 -34 1z"/>
<path d="M5976 3104 c-10 -26 -7 -44 8 -38 8 3 16 -3 19 -16 5 -18 9 -20 25
-11 34 18 40 67 7 54 -9 -3 -15 1 -15 11 0 21 -36 21 -44 0z"/>
<path d="M5860 2949 c-15 -26 -5 -58 12 -41 18 18 28 15 28 -8 0 -18 3 -19 20
-10 12 6 20 21 20 36 0 21 -3 24 -22 19 -17 -6 -20 -4 -15 9 10 25 -30 20 -43
-5z"/>
<path d="M3106 3334 c-106 -52 -150 -56 -195 -18 l-30 25 -7 -28 c-10 -45 -12
-50 -13 -20 -2 68 -81 -10 -81 -81 0 -114 62 -295 119 -346 16 -14 25 -16 56
-7 31 8 35 8 24 -5 -6 -8 -18 -14 -25 -14 -21 0 -17 -31 5 -37 11 -3 22 -11
25 -19 3 -8 12 -14 21 -14 8 0 15 -4 15 -10 0 -5 7 -10 15 -10 8 0 15 -6 15
-14 0 -7 16 -24 35 -37 32 -22 49 -50 44 -75 -5 -26 3 -43 24 -49 12 -3 39
-11 61 -17 35 -11 40 -10 57 10 10 13 23 48 29 80 6 31 17 84 24 117 8 33 20
89 26 125 6 36 15 83 20 105 20 92 34 171 33 187 -1 9 5 19 13 22 21 8 17 44
-7 56 -11 7 -27 27 -35 45 -37 90 -126 100 -268 29z m198 -20 c21 -20 21 -21
-11 -50 l-28 -24 22 -19 c23 -19 23 -19 5 -62 l-19 -43 -46 89 c-26 50 -47 95
-47 102 0 25 101 31 124 7z m-88 -124 c31 -60 52 -111 48 -120 -4 -10 -27 26
-64 100 -62 120 -67 134 -49 128 6 -2 35 -51 65 -108z m-28 -38 c64 -129 69
-142 53 -142 -7 0 -111 195 -139 262 -2 5 2 8 10 7 7 0 41 -57 76 -127z m-30
-31 c39 -76 72 -144 72 -150 0 -32 -24 3 -94 139 -47 91 -72 150 -64 150 7 0
46 -63 86 -139z m-24 -46 c73 -145 94 -198 62 -165 -20 22 -174 329 -168 335
11 10 30 -21 106 -170z m-37 -17 c85 -167 106 -217 85 -204 -12 7 -192 351
-192 366 0 35 30 -11 107 -162z m-23 -47 c58 -116 102 -212 97 -216 -5 -3 -12
-2 -14 2 -2 5 -48 92 -101 194 -81 158 -110 229 -92 229 2 0 51 -94 110 -209z
m304 191 c2 -7 -2 -10 -12 -6 -9 3 -16 11 -16 16 0 13 23 5 28 -10z m-325
-245 c92 -181 110 -227 88 -227 -14 0 -61 45 -61 59 0 14 -13 14 -28 -1 -10
-10 -11 -5 -6 20 7 33 -11 47 -22 17 -4 -8 -11 -15 -17 -15 -7 0 -7 4 1 12 15
15 16 55 1 60 -26 9 -87 268 -63 268 5 0 53 -87 107 -193z m-175 108 c0 -16
-2 -15 -8 5 -4 14 -8 36 -8 50 0 22 1 22 8 -5 4 -16 8 -39 8 -50z m322 -409
c0 -2 -8 -10 -17 -17 -16 -13 -17 -12 -4 4 13 16 21 21 21 13z"/>
<path d="M3544 3394 c-26 -13 -31 -20 -29 -51 0 -22 6 -38 15 -41 8 -3 19 -11
23 -18 4 -8 12 -14 18 -14 5 0 20 -9 32 -20 12 -12 32 -23 44 -26 44 -11 23
-25 -26 -18 -45 6 -52 4 -76 -20 -15 -15 -25 -29 -23 -31 2 -3 36 -7 74 -9 86
-5 141 10 149 41 4 19 12 23 48 23 24 0 56 8 75 20 18 11 46 20 63 20 26 0 30
-3 27 -22 -2 -19 -10 -22 -46 -23 -46 -1 -68 -15 -59 -38 4 -11 19 -14 57 -12
28 1 66 -1 85 -5 27 -6 38 -4 54 12 25 23 25 22 4 44 -17 17 -16 17 16 11 18
-4 40 -7 47 -7 24 0 15 -17 -11 -24 -40 -10 -30 -33 16 -38 48 -4 62 5 78 51
16 50 15 51 -36 52 l-48 1 50 12 c40 10 51 17 53 35 7 46 -10 51 -164 51 -84
0 -145 4 -149 10 -7 12 -10 11 156 10 123 -1 179 5 179 19 0 8 -313 12 -352 5
-21 -4 -28 -11 -28 -29 0 -14 8 -28 18 -34 9 -5 79 -9 156 -9 76 -1 140 -3
143 -6 18 -17 -29 -23 -202 -24 l-195 -1 0 35 c0 42 -30 73 -71 74 -23 0 -28
-5 -33 -35 -4 -20 -4 -44 -1 -55 10 -31 -10 -31 -53 0 -32 23 -41 37 -44 64
l-3 35 -31 -15z"/>
<path d="M3530 3085 c-7 -9 -14 -31 -16 -50 -3 -29 0 -35 16 -35 11 0 20 -4
20 -8 0 -5 12 -15 27 -23 15 -8 35 -22 45 -31 10 -10 25 -18 33 -18 8 0 15 -4
15 -10 0 -5 -20 -7 -47 -4 -39 5 -53 2 -75 -16 -16 -12 -28 -26 -28 -31 0 -10
140 -12 188 -3 21 4 32 13 34 28 2 17 12 22 50 26 26 3 55 13 66 23 29 26 62
22 62 -8 0 -21 -3 -24 -28 -19 -20 4 -33 0 -47 -16 -26 -29 -13 -35 77 -35
l73 0 -1 31 c-1 28 1 30 27 26 31 -5 38 -16 14 -26 -26 -10 -16 -32 15 -34 27
-2 33 2 46 34 21 51 15 70 -21 66 -29 -2 -29 -2 8 14 28 12 37 22 37 40 0 34
-38 46 -135 44 -99 -3 -105 -2 -105 10 0 6 46 10 119 10 66 0 122 4 125 9 7
10 -218 21 -253 12 -16 -5 -27 -16 -29 -29 -5 -32 33 -42 143 -40 52 1 97 -1
102 -5 13 -13 -20 -28 -51 -22 -16 3 -80 5 -142 5 l-114 0 0 31 c0 35 -32 68
-68 69 -25 0 -44 -36 -41 -80 2 -40 1 -41 -30 -25 -44 22 -61 43 -61 76 0 22
-5 29 -19 29 -10 0 -24 -7 -31 -15z"/>
<path d="M3540 2782 c-28 -22 -36 -92 -12 -92 9 0 33 -18 53 -40 21 -22 42
-40 48 -40 5 0 12 -4 15 -9 4 -5 -10 -7 -31 -4 -29 4 -45 0 -65 -17 -16 -12
-28 -26 -28 -31 0 -10 131 -12 166 -3 12 3 27 17 33 30 15 33 40 32 33 -1 -4
-22 -1 -25 25 -25 16 0 38 8 49 18 11 10 31 22 44 25 36 9 110 81 110 106 0
28 -35 41 -111 41 -42 0 -58 3 -53 11 5 8 31 10 83 6 79 -7 142 1 148 18 4 12
-236 14 -254 2 -20 -13 -15 -45 8 -58 12 -6 46 -9 78 -7 45 2 56 0 56 -12 0
-8 -8 -15 -17 -14 -10 0 -52 1 -93 2 -75 2 -75 2 -69 27 11 46 -78 102 -102
64 -4 -6 -8 -32 -9 -58 -2 -49 -13 -54 -47 -24 -12 11 -18 31 -18 60 0 47 -7
52 -40 25z m264 -166 c-6 -15 -24 -23 -24 -11 0 8 24 34 28 30 1 -1 0 -10 -4
-19z"/>
<path d="M3430 2260 c-11 -11 -20 -29 -20 -40 0 -24 42 -70 63 -70 28 0 67 41
67 69 0 56 -70 81 -110 41z m69 -24 c15 -18 4 -46 -18 -46 -27 0 -42 20 -30
42 12 21 32 23 48 4z"/>
<path d="M4500 2091 c0 -5 5 -11 12 -13 18 -6 -16 -169 -38 -185 -10 -7 -16
-15 -13 -17 8 -8 95 -20 147 -20 48 -1 57 2 83 32 23 25 29 42 29 76 0 38 -5
48 -35 74 -19 17 -51 34 -72 37 -21 4 -51 11 -67 16 -36 11 -46 11 -46 0z
m140 -58 c17 -22 20 -36 16 -67 -11 -64 -32 -96 -66 -96 -37 0 -40 6 -29 64
24 132 39 150 79 99z"/>
<path d="M4830 2000 c0 -5 5 -10 10 -10 33 0 -45 -171 -82 -181 -20 -5 -14
-10 39 -37 37 -19 64 -28 68 -22 3 6 1 10 -4 10 -15 0 -13 42 3 63 16 21 21
16 31 -33 12 -64 16 -70 56 -90 44 -23 45 -20 24 40 -19 54 -19 81 -1 74 28
-11 56 15 56 51 0 25 -7 38 -27 53 -47 33 -173 93 -173 82z m121 -70 c21 -12
25 -50 7 -68 -16 -16 -57 -15 -64 2 -5 14 21 76 32 76 3 0 14 -5 25 -10z"/>
<path d="M5114 1766 c-29 -29 -34 -41 -34 -80 0 -36 6 -52 31 -81 43 -49 97
-64 147 -41 73 33 95 117 46 176 -59 70 -136 80 -190 26z m151 -10 c51 -37
-42 -191 -104 -171 -52 16 -47 85 11 151 32 36 62 43 93 20z"/>
<path d="M5438 1637 c8 -10 6 -22 -10 -48 -11 -18 -31 -52 -43 -74 -13 -23
-33 -42 -46 -46 l-24 -5 25 -14 c14 -7 40 -21 58 -31 31 -18 43 -14 22 7 -7 7
6 36 36 87 34 58 51 77 67 77 17 0 11 7 -25 30 -51 32 -79 40 -60 17z"/>
<path d="M5591 1514 c-15 -34 -9 -40 22 -20 20 14 57 14 57 0 0 -3 -18 -41
-41 -85 -33 -67 -44 -80 -60 -76 -36 10 -18 -8 41 -40 56 -31 75 -32 48 -5 -9
9 -3 30 27 92 43 89 62 98 81 40 l11 -34 16 30 15 29 -89 48 c-49 26 -95 47
-102 47 -8 0 -19 -12 -26 -26z"/>
<path d="M2195 2052 c-27 -14 -28 -16 -9 -23 26 -9 76 -120 72 -157 -2 -19
-11 -29 -31 -36 -40 -14 -56 0 -95 79 -25 52 -30 70 -21 81 16 19 5 18 -52 -8
-47 -22 -66 -42 -34 -36 16 3 25 -10 66 -96 35 -73 94 -84 159 -29 39 32 39
62 0 148 -23 52 -28 71 -19 81 14 18 2 16 -36 -4z"/>
<path d="M1805 1854 c-74 -50 -107 -82 -72 -68 9 3 31 -20 66 -71 42 -62 50
-80 40 -91 -7 -8 -10 -16 -8 -18 7 -6 170 104 175 119 7 16 -12 55 -27 55 -6
0 -9 -10 -8 -22 3 -34 -10 -57 -41 -73 -28 -14 -29 -14 -51 21 -16 27 -19 38
-10 47 9 9 16 8 31 -1 37 -23 39 -12 7 36 -30 44 -32 45 -35 22 -6 -54 -12
-57 -42 -21 -33 38 -32 45 11 67 28 14 33 14 55 -1 13 -8 24 -13 24 -10 0 7
-30 65 -33 64 -1 0 -38 -25 -82 -55z"/>
<path d="M1555 1687 c-44 -28 -47 -32 -27 -35 29 -4 116 -135 109 -164 -6 -22
-7 -22 50 12 44 26 56 43 27 38 -24 -4 -106 129 -99 160 7 28 0 27 -60 -11z"/>
<path d="M1295 1532 c-42 -22 -63 -38 -53 -40 25 -5 101 -147 93 -172 -9 -27
-2 -26 69 14 78 44 96 64 100 112 7 70 -41 125 -106 123 -18 0 -64 -17 -103
-37z m112 -14 c49 -54 60 -128 22 -149 -12 -6 -25 -7 -29 -2 -21 21 -81 147
-76 159 8 22 60 17 83 -8z"/>
<path d="M2750 1074 c0 -2 5 -12 11 -22 13 -21 -23 -161 -46 -178 -23 -17 -19
-21 38 -34 28 -7 59 -16 67 -20 8 -4 30 -10 47 -13 29 -6 35 -3 48 23 13 26
14 30 1 30 -8 0 -18 -4 -21 -10 -8 -13 -92 -13 -100 0 -4 6 -1 26 5 46 8 25
16 34 27 30 8 -3 17 -6 19 -6 2 0 4 -12 4 -27 0 -33 10 -24 27 25 20 58 17 69
-12 42 -33 -31 -50 -17 -37 31 7 29 13 34 36 32 36 -3 56 -20 56 -49 0 -27 15
-32 24 -8 17 43 8 53 -66 75 -40 11 -85 25 -100 29 -16 5 -28 7 -28 4z"/>
<path d="M4165 1065 c-5 -2 -23 -6 -39 -10 l-30 -6 24 -12 c16 -8 29 -28 37
-56 7 -25 11 -46 9 -48 -2 -3 -36 17 -75 42 -61 42 -75 47 -106 41 -39 -8 -43
-15 -17 -37 9 -8 26 -50 36 -93 17 -67 18 -79 5 -87 -12 -7 -12 -9 1 -9 8 0
25 3 38 6 20 6 21 8 9 23 -14 15 -29 56 -41 113 -6 27 -5 26 66 -21 90 -59
118 -74 125 -67 3 3 -4 44 -17 92 -12 47 -19 97 -16 110 4 13 5 24 4 23 -2 0
-7 -2 -13 -4z"/>
<path d="M2986 979 c-8 -41 0 -49 20 -21 9 13 26 22 40 22 22 0 24 -3 18 -22
-3 -12 -12 -53 -18 -92 -9 -52 -17 -71 -31 -76 -17 -6 -17 -7 -2 -13 9 -3 40
-9 69 -12 49 -6 51 -5 34 9 -18 15 -18 18 -1 106 10 49 19 90 22 90 17 0 43
-24 43 -40 0 -32 17 -23 22 11 6 36 8 35 -100 49 -46 6 -89 13 -96 16 -9 3
-16 -6 -20 -27z"/>
<path d="M3753 971 c-51 -24 -78 -69 -69 -119 13 -81 110 -126 186 -87 90 47
94 167 6 209 -44 21 -71 20 -123 -3z m89 -18 c9 -10 21 -41 27 -70 11 -43 10
-56 -3 -81 -29 -56 -84 -44 -106 24 -14 41 -8 107 10 129 17 20 54 19 72 -2z"/>
<path d="M3340 961 l-25 -7 23 -12 c20 -11 22 -20 22 -87 0 -84 -6 -105 -28
-105 -31 0 0 -14 34 -16 38 -1 42 3 19 20 -13 9 -15 28 -13 86 l3 75 42 -88
c23 -48 46 -87 51 -87 5 0 18 21 30 48 12 26 29 65 39 87 l18 40 3 -75 c2 -62
0 -77 -14 -87 -20 -15 -21 -14 46 -14 66 0 68 0 48 12 -15 8 -18 25 -18 96 0
70 3 88 18 99 15 12 11 13 -34 14 l-50 0 -30 -70 c-16 -38 -32 -70 -35 -70 -3
0 -20 34 -39 75 -36 80 -44 85 -110 66z"/>
</g>
</svg>
